<svg width="87" height="89" viewBox="0 0 87 89" fill="none" xmlns="http://www.w3.org/2000/svg">
<g filter="url(#filter0_d_0_1)">
<rect x="23.956" y="0.0955963" width="61" height="61" transform="rotate(21 23.956 0.0955963)" fill="#8A2BE2"/>
</g>
<path d="M49.9062 34.1976C49.9062 34.5539 49.7647 34.8957 49.5127 35.1477C49.2607 35.3997 48.9189 35.5413 48.5625 35.5413C48.2061 35.5413 47.8643 35.3997 47.6123 35.1477C47.3603 34.8957 47.2188 34.5539 47.2188 34.1976C47.2188 33.8412 47.3603 33.4994 47.6123 33.2474C47.8643 32.9954 48.2061 32.8538 48.5625 32.8538C48.9189 32.8538 49.2607 32.9954 49.5127 33.2474C49.7647 33.4994 49.9062 33.8412 49.9062 34.1976ZM45.875 38.2288C46.2314 38.2288 46.5732 38.0872 46.8252 37.8352C47.0772 37.5832 47.2188 37.2414 47.2188 36.8851C47.2188 36.5287 47.0772 36.1869 46.8252 35.9349C46.5732 35.6829 46.2314 35.5413 45.875 35.5413C45.5186 35.5413 45.1768 35.6829 44.9248 35.9349C44.6728 36.1869 44.5312 36.5287 44.5312 36.8851C44.5312 37.2414 44.6728 37.5832 44.9248 37.8352C45.1768 38.0872 45.5186 38.2288 45.875 38.2288ZM52.5938 36.8851C52.5938 37.2414 52.4522 37.5832 52.2002 37.8352C51.9482 38.0872 51.6064 38.2288 51.25 38.2288C50.8936 38.2288 50.5518 38.0872 50.2998 37.8352C50.0478 37.5832 49.9062 37.2414 49.9062 36.8851C49.9062 36.5287 50.0478 36.1869 50.2998 35.9349C50.5518 35.6829 50.8936 35.5413 51.25 35.5413C51.6064 35.5413 51.9482 35.6829 52.2002 35.9349C52.4522 36.1869 52.5938 36.5287 52.5938 36.8851ZM48.5625 40.9163C48.9189 40.9163 49.2607 40.7747 49.5127 40.5227C49.7647 40.2707 49.9062 39.9289 49.9062 39.5726C49.9062 39.2162 49.7647 38.8744 49.5127 38.6224C49.2607 38.3704 48.9189 38.2288 48.5625 38.2288C48.2061 38.2288 47.8643 38.3704 47.6123 38.6224C47.3603 38.8744 47.2188 39.2162 47.2188 39.5726C47.2188 39.9289 47.3603 40.2707 47.6123 40.5227C47.8643 40.7747 48.2061 40.9163 48.5625 40.9163ZM31.0938 32.8538H33.7812V35.5413H36.4688V38.2288H33.7812V40.9163H31.0938V38.2288H28.4062V35.5413H31.0938V32.8538Z" fill="white"/>
<path d="M27.1996 26.7613C27.1537 26.5906 27.1419 26.4126 27.1649 26.2374C27.1878 26.0622 27.2452 25.8932 27.3335 25.7402C27.4219 25.5872 27.5396 25.4531 27.6798 25.3456C27.8201 25.2381 27.9802 25.1593 28.1509 25.1138L33.3432 23.7217C33.5217 23.6741 33.7081 23.6639 33.8907 23.6916C34.0734 23.7193 34.2483 23.7843 34.4047 23.8827C34.5611 23.9811 34.6955 24.1106 34.7995 24.2632C34.9036 24.4159 34.975 24.5883 35.0094 24.7698C36.7698 24.5575 38.6376 24.4554 40.5 24.4554C42.435 24.4554 44.3781 24.5656 46.1975 24.794C46.2289 24.6098 46.2984 24.4341 46.4016 24.2782C46.5047 24.1224 46.6393 23.9897 46.7966 23.8888C46.9539 23.7879 47.1306 23.7209 47.3152 23.6921C47.4999 23.6634 47.6886 23.6734 47.8691 23.7217L53.0614 25.1138C53.2595 25.1668 53.4429 25.2645 53.5974 25.3994C53.7519 25.5342 53.8735 25.7027 53.9529 25.8918C54.0323 26.0809 54.0673 26.2857 54.0554 26.4904C54.0434 26.6952 53.9847 26.8944 53.8838 27.073C54.26 27.3149 54.5986 27.5836 54.8862 27.8712C55.9827 28.9677 56.9824 30.6931 57.829 32.6334C58.689 34.6034 59.4388 36.9092 59.9924 39.2608C60.5461 41.6124 60.9062 44.0446 60.9707 46.2644C61.0352 48.4574 60.8121 50.5698 60.0892 52.2038C59.7595 52.9374 59.2065 53.5481 58.5091 53.9487C57.8117 54.3493 57.0055 54.5193 56.2058 54.4344C54.4965 54.2544 53.2092 53.3756 52.1396 52.357C51.4811 51.7335 50.8066 50.9434 50.1535 50.1855C49.8149 49.7877 49.4816 49.4008 49.1645 49.0487C47.208 46.8879 44.8726 44.9449 40.5 44.9449C36.1274 44.9449 33.792 46.8879 31.8355 49.0487C31.5157 49.4008 31.1851 49.7877 30.8465 50.1855C30.1934 50.9434 29.5189 51.7308 28.8604 52.357C27.7908 53.3783 26.5035 54.2544 24.7943 54.4344C23.9945 54.5193 23.1883 54.3493 22.4909 53.9487C21.7935 53.5481 21.2405 52.9374 20.9108 52.2038C20.1852 50.5698 19.9648 48.4547 20.0266 46.2644C20.0911 44.0446 20.4566 41.6151 21.0076 39.2608C21.5612 36.9092 22.3137 34.6034 23.171 32.6334C24.0176 30.6931 25.0173 28.9677 26.1111 27.8712C26.4625 27.5266 26.853 27.2244 27.2748 26.9709C27.2439 26.9023 27.2187 26.834 27.1996 26.7613ZM32.6713 27.8685C30.3144 28.3657 28.7234 29.0591 28.0139 29.7713C27.2721 30.513 26.4363 31.8756 25.6354 33.7084C24.7858 35.7015 24.1131 37.7654 23.6252 39.8763C23.1097 41.9964 22.8046 44.1623 22.7141 46.3424C22.655 48.3714 22.8808 50.0189 23.3672 51.1154C23.4668 51.3289 23.6308 51.506 23.8361 51.6216C24.0414 51.7373 24.2778 51.7858 24.5121 51.7604C25.3909 51.669 26.1514 51.2256 27.0088 50.4113C27.5785 49.8684 28.0838 49.2744 28.6616 48.5999C29.019 48.1806 29.4033 47.7318 29.8441 47.2454C32.0639 44.7917 35.0659 42.2601 40.5 42.2601C45.9341 42.2601 48.9361 44.7917 51.1559 47.2454C51.5967 47.7318 51.981 48.1806 52.3384 48.5999C52.9136 49.2744 53.4215 49.8684 53.9913 50.4113C54.8459 51.2256 55.6064 51.669 56.4879 51.7631C56.7225 51.7883 56.9591 51.7394 57.1645 51.6232C57.3698 51.507 57.5336 51.3294 57.6328 51.1154C58.1166 50.0189 58.345 48.3741 58.2859 46.3424C58.1954 44.1623 57.8902 41.9965 57.3748 39.8763C56.8868 37.7654 56.2141 35.7015 55.3646 33.7084C54.5637 31.8756 53.7252 30.5103 52.9861 29.7713C52.2766 29.0591 50.6856 28.3657 48.3287 27.8685C46.0443 27.3874 43.2843 27.1429 40.5 27.1429C37.7158 27.1429 34.9557 27.3874 32.6713 27.8685Z" fill="white"/>
<defs>
<filter id="filter0_d_0_1" x="0.0955505" y="0.0955963" width="86.8088" height="88.8088" filterUnits="userSpaceOnUse" color-interpolation-filters="sRGB">
<feFlood flood-opacity="0" result="BackgroundImageFix"/>
<feColorMatrix in="SourceAlpha" type="matrix" values="0 0 0 0 0 0 0 0 0 0 0 0 0 0 0 0 0 0 127 0" result="hardAlpha"/>
<feOffset dx="2" dy="6"/>
<feGaussianBlur stdDeviation="2"/>
<feComposite in2="hardAlpha" operator="out"/>
<feColorMatrix type="matrix" values="0 0 0 0 0 0 0 0 0 0 0 0 0 0 0 0 0 0 0.25 0"/>
<feBlend mode="normal" in2="BackgroundImageFix" result="effect1_dropShadow_0_1"/>
<feBlend mode="normal" in="SourceGraphic" in2="effect1_dropShadow_0_1" result="shape"/>
</filter>
</defs>
</svg>
