<svg width="40" height="40" viewBox="0 0 40 40" fill="none" xmlns="http://www.w3.org/2000/svg">
<path d="M1.25 24.75C1.58152 24.75 1.89946 24.8817 2.13388 25.1161C2.3683 25.3505 2.5 25.6685 2.5 26V32.25C2.5 32.913 2.76339 33.5489 3.23223 34.0178C3.70107 34.4866 4.33696 34.75 5 34.75H35C35.663 34.75 36.2989 34.4866 36.7678 34.0178C37.2366 33.5489 37.5 32.913 37.5 32.25V26C37.5 25.6685 37.6317 25.3505 37.8661 25.1161C38.1005 24.8817 38.4185 24.75 38.75 24.75C39.0815 24.75 39.3995 24.8817 39.6339 25.1161C39.8683 25.3505 40 25.6685 40 26V32.25C40 33.5761 39.4732 34.8479 38.5355 35.7855C37.5979 36.7232 36.3261 37.25 35 37.25H5C3.67392 37.25 2.40215 36.7232 1.46447 35.7855C0.526784 34.8479 0 33.5761 0 32.25V26C0 25.6685 0.131696 25.3505 0.366117 25.1161C0.600537 24.8817 0.918479 24.75 1.25 24.75Z" fill="#8A2BE2"/>
<path d="M19.115 29.635C19.2311 29.7514 19.3691 29.8438 19.5209 29.9068C19.6728 29.9698 19.8356 30.0022 20 30.0022C20.1644 30.0022 20.3272 29.9698 20.4791 29.9068C20.6309 29.8438 20.7689 29.7514 20.885 29.635L28.385 22.135C28.6197 21.9003 28.7516 21.5819 28.7516 21.25C28.7516 20.9181 28.6197 20.5997 28.385 20.365C28.1503 20.1303 27.8319 19.9984 27.5 19.9984C27.1681 19.9984 26.8497 20.1303 26.615 20.365L21.25 25.7325V3.75C21.25 3.41848 21.1183 3.10054 20.8839 2.86612C20.6495 2.6317 20.3315 2.5 20 2.5C19.6685 2.5 19.3505 2.6317 19.1161 2.86612C18.8817 3.10054 18.75 3.41848 18.75 3.75V25.7325L13.385 20.365C13.1503 20.1303 12.8319 19.9984 12.5 19.9984C12.1681 19.9984 11.8497 20.1303 11.615 20.365C11.3803 20.5997 11.2484 20.9181 11.2484 21.25C11.2484 21.5819 11.3803 21.9003 11.615 22.135L19.115 29.635Z" fill="#8A2BE2"/>
</svg>
