<svg width="137" height="137" viewBox="0 0 137 137" fill="none" xmlns="http://www.w3.org/2000/svg">
<path fill-rule="evenodd" clip-rule="evenodd" d="M119.875 38.5312V119.875C119.875 124.417 118.071 128.773 114.859 131.984C111.648 135.196 107.292 137 102.75 137H94.1875V128.438H102.75C105.021 128.438 107.199 127.535 108.805 125.93C110.41 124.324 111.312 122.146 111.312 119.875V38.5312H94.1875C90.7811 38.5312 87.5143 37.1781 85.1056 34.7694C82.6969 32.3607 81.3438 29.0939 81.3438 25.6875V8.5625H34.25C31.9791 8.5625 29.8012 9.46462 28.1954 11.0704C26.5896 12.6762 25.6875 14.8541 25.6875 17.125V94.1875H17.125V17.125C17.125 12.5832 18.9292 8.22736 22.1408 5.0158C25.3524 1.80424 29.7082 0 34.25 0L81.3438 0L119.875 38.5312ZM22.0484 130.167H6.72156V120.98H21.1494V115.791H6.72156V107.014H22.0484V101.466H0V135.707H22.0484V130.167ZM54.0294 101.466H46.3831L39.3361 113.787H39.0279L31.9039 101.466H23.9322L34.4384 118.445L23.8294 135.707H31.2018L38.5056 123.591H38.8053L46.0834 135.707H53.8581L43.1207 118.651L54.0294 101.466ZM62.8059 130.167H78.1328V135.707H56.0672V101.466H78.1242V107.014H62.7974V115.791H77.2166V120.98H62.7974L62.8059 130.167Z" fill="#8A2BE2"/>
</svg>
