<svg width="87" height="89" viewBox="0 0 87 89" fill="none" xmlns="http://www.w3.org/2000/svg">
<g filter="url(#filter0_d_0_1)">
<rect x="23.956" y="0.0955963" width="61" height="61" transform="rotate(21 23.956 0.0955963)" fill="#8A2BE2"/>
</g>
<g clip-path="url(#clip0_0_1)">
<path d="M58.4375 52.875C58.4375 52.875 61 52.875 61 50.3125C61 47.75 58.4375 40.0625 48.1875 40.0625C37.9375 40.0625 35.375 47.75 35.375 50.3125C35.375 52.875 37.9375 52.875 37.9375 52.875H58.4375ZM37.9939 50.3125C37.9749 50.3099 37.9561 50.3065 37.9375 50.3023C37.9401 49.6258 38.3654 47.6629 39.885 45.8948C41.2995 44.2368 43.7851 42.625 48.1875 42.625C52.5873 42.625 55.0729 44.2394 56.49 45.8948C58.0096 47.6629 58.4324 49.6283 58.4375 50.3023L58.417 50.3074C58.4051 50.3094 58.3931 50.3111 58.3811 50.3125H37.9939ZM48.1875 34.9375C49.5467 34.9375 50.8503 34.3975 51.8114 33.4364C52.7725 32.4753 53.3125 31.1717 53.3125 29.8125C53.3125 28.4533 52.7725 27.1497 51.8114 26.1886C50.8503 25.2275 49.5467 24.6875 48.1875 24.6875C46.8283 24.6875 45.5247 25.2275 44.5636 26.1886C43.6025 27.1497 43.0625 28.4533 43.0625 29.8125C43.0625 31.1717 43.6025 32.4753 44.5636 33.4364C45.5247 34.3975 46.8283 34.9375 48.1875 34.9375ZM55.875 29.8125C55.875 30.822 55.6762 31.8217 55.2898 32.7544C54.9035 33.6871 54.3372 34.5345 53.6234 35.2484C52.9095 35.9622 52.0621 36.5285 51.1294 36.9148C50.1967 37.3012 49.197 37.5 48.1875 37.5C47.178 37.5 46.1783 37.3012 45.2456 36.9148C44.3129 36.5285 43.4655 35.9622 42.7516 35.2484C42.0378 34.5345 41.4715 33.6871 41.0852 32.7544C40.6988 31.8217 40.5 30.822 40.5 29.8125C40.5 27.7736 41.3099 25.8183 42.7516 24.3766C44.1933 22.9349 46.1486 22.125 48.1875 22.125C50.2264 22.125 52.1817 22.9349 53.6234 24.3766C55.0651 25.8183 55.875 27.7736 55.875 29.8125ZM37.7735 40.78C36.7485 40.4572 35.6918 40.245 34.6216 40.1471C34.0203 40.0899 33.4165 40.0617 32.8125 40.0625C22.5625 40.0625 20 47.75 20 50.3125C20 52.0217 20.8533 52.875 22.5625 52.875H33.366C32.9861 52.075 32.7967 51.1979 32.8125 50.3125C32.8125 47.7244 33.7786 45.0799 35.6056 42.871C36.2283 42.1176 36.9535 41.4129 37.7735 40.78ZM32.6075 42.625C31.0909 44.9038 30.2716 47.5753 30.25 50.3125H22.5625C22.5625 49.6463 22.9827 47.6731 24.51 45.8948C25.9066 44.265 28.3333 42.6763 32.6075 42.6276V42.625ZM23.8438 31.0938C23.8438 29.0549 24.6537 27.0996 26.0954 25.6579C27.5371 24.2162 29.4924 23.4063 31.5312 23.4062C33.5701 23.4062 35.5254 24.2162 36.9671 25.6579C38.4088 27.0996 39.2188 29.0549 39.2188 31.0938C39.2188 33.1326 38.4088 35.0879 36.9671 36.5296C35.5254 37.9713 33.5701 38.7812 31.5312 38.7812C29.4924 38.7812 27.5371 37.9713 26.0954 36.5296C24.6537 35.0879 23.8438 33.1326 23.8438 31.0938ZM31.5312 25.9688C30.172 25.9688 28.8685 26.5087 27.9073 27.4698C26.9462 28.431 26.4062 29.7345 26.4062 31.0938C26.4062 32.453 26.9462 33.7565 27.9073 34.7177C28.8685 35.6788 30.172 36.2188 31.5312 36.2188C32.8905 36.2188 34.194 35.6788 35.1552 34.7177C36.1163 33.7565 36.6562 32.453 36.6562 31.0938C36.6562 29.7345 36.1163 28.431 35.1552 27.4698C34.194 26.5087 32.8905 25.9688 31.5312 25.9688Z" fill="white"/>
</g>
<defs>
<filter id="filter0_d_0_1" x="0.0955505" y="0.0955963" width="86.8088" height="88.8088" filterUnits="userSpaceOnUse" color-interpolation-filters="sRGB">
<feFlood flood-opacity="0" result="BackgroundImageFix"/>
<feColorMatrix in="SourceAlpha" type="matrix" values="0 0 0 0 0 0 0 0 0 0 0 0 0 0 0 0 0 0 127 0" result="hardAlpha"/>
<feOffset dx="2" dy="6"/>
<feGaussianBlur stdDeviation="2"/>
<feComposite in2="hardAlpha" operator="out"/>
<feColorMatrix type="matrix" values="0 0 0 0 0 0 0 0 0 0 0 0 0 0 0 0 0 0 0.25 0"/>
<feBlend mode="normal" in2="BackgroundImageFix" result="effect1_dropShadow_0_1"/>
<feBlend mode="normal" in="SourceGraphic" in2="effect1_dropShadow_0_1" result="shape"/>
</filter>
<clipPath id="clip0_0_1">
<rect width="41" height="41" fill="white" transform="translate(20 19)"/>
</clipPath>
</defs>
</svg>
