<svg width="87" height="89" viewBox="0 0 87 89" fill="none" xmlns="http://www.w3.org/2000/svg">
<g filter="url(#filter0_d_0_1)">
<rect x="23.956" y="0.0955963" width="61" height="61" transform="rotate(21 23.956 0.0955963)" fill="#8A2BE2"/>
</g>
<path d="M37.1364 46.5341V45.9545C37.1477 43.9659 37.3239 42.3807 37.6648 41.1989C38.017 40.017 38.5284 39.0625 39.1989 38.3352C39.8693 37.608 40.6761 36.9489 41.6193 36.358C42.3239 35.9034 42.9545 35.4318 43.5114 34.9432C44.0682 34.4545 44.5114 33.9148 44.8409 33.3239C45.1705 32.7216 45.3352 32.0511 45.3352 31.3125C45.3352 30.5284 45.1477 29.8409 44.7727 29.25C44.3977 28.6591 43.892 28.2045 43.2557 27.8864C42.6307 27.5682 41.9375 27.4091 41.1761 27.4091C40.4375 27.4091 39.7386 27.5739 39.0795 27.9034C38.4205 28.2216 37.8807 28.6989 37.4602 29.3352C37.0398 29.9602 36.8125 30.7386 36.7784 31.6705H29.8239C29.8807 29.3977 30.4261 27.5227 31.4602 26.0455C32.4943 24.5568 33.8636 23.4489 35.5682 22.7216C37.2727 21.983 39.1534 21.6136 41.2102 21.6136C43.4716 21.6136 45.4716 21.9886 47.2102 22.7386C48.9489 23.4773 50.3125 24.5511 51.3011 25.9602C52.2898 27.3693 52.7841 29.0682 52.7841 31.0568C52.7841 32.3864 52.5625 33.5682 52.1193 34.6023C51.6875 35.625 51.0795 36.5341 50.2955 37.3295C49.5114 38.1136 48.5852 38.8239 47.517 39.4602C46.6193 39.9943 45.8807 40.5511 45.3011 41.1307C44.733 41.7102 44.3068 42.3807 44.0227 43.142C43.75 43.9034 43.608 44.8409 43.5966 45.9545V46.5341H37.1364ZM40.5114 57.4432C39.375 57.4432 38.4034 57.0455 37.5966 56.25C36.8011 55.4432 36.4091 54.4773 36.4205 53.3523C36.4091 52.2386 36.8011 51.2841 37.5966 50.4886C38.4034 49.6932 39.375 49.2955 40.5114 49.2955C41.5909 49.2955 42.5398 49.6932 43.358 50.4886C44.1761 51.2841 44.5909 52.2386 44.6023 53.3523C44.5909 54.1023 44.392 54.7898 44.0057 55.4148C43.6307 56.0284 43.1364 56.5227 42.5227 56.8977C41.9091 57.2614 41.2386 57.4432 40.5114 57.4432Z" fill="white"/>
<defs>
<filter id="filter0_d_0_1" x="0.0955505" y="0.0955963" width="86.8088" height="88.8088" filterUnits="userSpaceOnUse" color-interpolation-filters="sRGB">
<feFlood flood-opacity="0" result="BackgroundImageFix"/>
<feColorMatrix in="SourceAlpha" type="matrix" values="0 0 0 0 0 0 0 0 0 0 0 0 0 0 0 0 0 0 127 0" result="hardAlpha"/>
<feOffset dx="2" dy="6"/>
<feGaussianBlur stdDeviation="2"/>
<feComposite in2="hardAlpha" operator="out"/>
<feColorMatrix type="matrix" values="0 0 0 0 0 0 0 0 0 0 0 0 0 0 0 0 0 0 0.25 0"/>
<feBlend mode="normal" in2="BackgroundImageFix" result="effect1_dropShadow_0_1"/>
<feBlend mode="normal" in="SourceGraphic" in2="effect1_dropShadow_0_1" result="shape"/>
</filter>
</defs>
</svg>
