<svg width="87" height="89" viewBox="0 0 87 89" fill="none" xmlns="http://www.w3.org/2000/svg">
<g filter="url(#filter0_d_0_1)">
<rect x="23.956" y="0.0955963" width="61" height="61" transform="rotate(21 23.956 0.0955963)" fill="#8A2BE2"/>
</g>
<path d="M20 29.25C20 27.8908 20.54 26.5872 21.5011 25.6261C22.4622 24.665 23.7658 24.125 25.125 24.125H55.875C57.2342 24.125 58.5378 24.665 59.4989 25.6261C60.46 26.5872 61 27.8908 61 29.25V49.75C61 51.1092 60.46 52.4128 59.4989 53.3739C58.5378 54.335 57.2342 54.875 55.875 54.875H25.125C23.7658 54.875 22.4622 54.335 21.5011 53.3739C20.54 52.4128 20 51.1092 20 49.75V29.25ZM25.125 26.6875C24.4454 26.6875 23.7936 26.9575 23.313 27.438C22.8325 27.9186 22.5625 28.5704 22.5625 29.25V29.8061L40.5 40.5686L58.4375 29.8061V29.25C58.4375 28.5704 58.1675 27.9186 57.687 27.438C57.2064 26.9575 56.5546 26.6875 55.875 26.6875H25.125ZM58.4375 32.7939L46.3732 40.033L58.4375 47.4566V32.7939ZM58.3504 50.4137L43.8979 41.5193L40.5 43.5564L37.1021 41.5193L22.6496 50.4111C22.7952 50.9564 23.1168 51.4384 23.5644 51.7822C24.012 52.126 24.5606 52.3124 25.125 52.3125H55.875C56.4391 52.3126 56.9874 52.1265 57.4349 51.7832C57.8825 51.4399 58.2043 50.9585 58.3504 50.4137ZM22.5625 47.4566L34.6268 40.033L22.5625 32.7939V47.4566Z" fill="white"/>
<defs>
<filter id="filter0_d_0_1" x="0.0955505" y="0.0955963" width="86.8088" height="88.8088" filterUnits="userSpaceOnUse" color-interpolation-filters="sRGB">
<feFlood flood-opacity="0" result="BackgroundImageFix"/>
<feColorMatrix in="SourceAlpha" type="matrix" values="0 0 0 0 0 0 0 0 0 0 0 0 0 0 0 0 0 0 127 0" result="hardAlpha"/>
<feOffset dx="2" dy="6"/>
<feGaussianBlur stdDeviation="2"/>
<feComposite in2="hardAlpha" operator="out"/>
<feColorMatrix type="matrix" values="0 0 0 0 0 0 0 0 0 0 0 0 0 0 0 0 0 0 0.25 0"/>
<feBlend mode="normal" in2="BackgroundImageFix" result="effect1_dropShadow_0_1"/>
<feBlend mode="normal" in="SourceGraphic" in2="effect1_dropShadow_0_1" result="shape"/>
</filter>
</defs>
</svg>
