<svg width="428" height="201" viewBox="0 0 428 201" fill="none" xmlns="http://www.w3.org/2000/svg">
<g filter="url(#filter0_d_0_1)">
<line x1="214.358" y1="1.19529" x2="285.2" y2="8.9517" stroke="black"/>
</g>
<g filter="url(#filter1_d_0_1)">
<line x1="318.729" y1="181.319" x2="423.699" y2="113.58" stroke="black"/>
</g>
<g filter="url(#filter2_d_0_1)">
<line x1="413.202" y1="5.20051" x2="360.458" y2="125.683" stroke="#8A2BEA"/>
</g>
<g filter="url(#filter3_d_0_1)">
<rect x="222.961" y="185" width="5.73356" height="5.73356" transform="rotate(20 222.961 185)" fill="#8A2BEA"/>
</g>
<g filter="url(#filter4_d_0_1)">
<rect x="157.789" y="12.8932" width="4.13675" height="4.13675" transform="rotate(11 157.789 12.8932)" fill="black"/>
</g>
<g filter="url(#filter5_d_0_1)">
<rect x="173" y="174.762" width="6.20513" height="6.20513" transform="rotate(-16.5 173 174.762)" fill="black"/>
</g>
<g filter="url(#filter6_d_0_1)">
<rect x="386.131" y="108" width="6.20513" height="6.20513" transform="rotate(10.5 386.131 108)" fill="black"/>
</g>
<g filter="url(#filter7_d_0_1)">
<rect x="168.376" y="2.54639" width="7.75641" height="7.75641" transform="rotate(-11.5 168.376 2.54639)" fill="#8A2BEA"/>
</g>
<g filter="url(#filter8_d_0_1)">
<rect x="407.28" y="54" width="8.2735" height="8.2735" transform="rotate(16 407.28 54)" fill="#8A2BEA"/>
</g>
<g filter="url(#filter9_d_0_1)">
<rect x="376" y="168.518" width="10.7854" height="10.7854" transform="rotate(-13.5 376 168.518)" fill="#8A2BEA"/>
</g>
<path d="M122.952 56.32C121.886 56.32 120.787 56.2133 119.656 56V51.68H122.536C123.155 51.68 123.582 51.4347 123.816 50.944C123.923 50.7307 123.976 50.5067 123.976 50.272C123.976 50.016 123.923 49.792 123.816 49.6L115.016 33.6H121.416L127.176 44.96L131.976 33.6H138.376L130.216 51.2C129.47 52.8853 128.574 54.144 127.528 54.976C126.376 55.872 124.851 56.32 122.952 56.32ZM151.341 53.12H147.181L143.981 47.36V56H138.381V39.04H144.301L149.261 48L154.221 39.04H160.141V56H154.541V47.36L151.341 53.12ZM169.91 42.72C169.057 42.72 168.63 43.1467 168.63 44V45.76H174.07V44C174.07 43.1467 173.643 42.72 172.79 42.72H169.91ZM179.03 55.68C174.913 56.1067 171.179 56.32 167.83 56.32C166.379 56.32 165.217 55.8827 164.342 55.008C163.467 54.1333 163.03 52.9707 163.03 51.52V43.84C163.03 42.24 163.478 40.992 164.374 40.096C165.291 39.1787 166.55 38.72 168.15 38.72H174.55C176.15 38.72 177.398 39.1787 178.294 40.096C179.211 40.992 179.67 42.24 179.67 43.84V49.76H168.63V51.04C168.63 51.36 168.737 51.6267 168.95 51.84C169.163 52.0533 169.43 52.16 169.75 52.16C171.862 52.16 174.955 52 179.03 51.68V55.68ZM193.898 45.28V39.04H199.498V56H193.898V49.6H188.138V56H182.538V39.04H188.138V45.28H193.898ZM202.694 56V39.04H208.294V44.32H214.854C216.304 44.32 217.467 44.7573 218.342 45.632C219.216 46.5067 219.654 47.6693 219.654 49.12V51.2C219.654 52.6507 219.216 53.8133 218.342 54.688C217.467 55.5627 216.304 56 214.854 56H202.694ZM212.934 52C213.254 52 213.52 51.8933 213.734 51.68C213.947 51.4667 214.054 51.2 214.054 50.88V49.44C214.054 49.12 213.947 48.8533 213.734 48.64C213.52 48.4267 213.254 48.32 212.934 48.32H208.294V52H212.934ZM221.881 56V39.04H227.481V51.68H231.161V39.04H236.761V51.68H240.441V39.04H246.041V56H221.881ZM255.816 42.72C254.963 42.72 254.536 43.1467 254.536 44V45.76H259.976V44C259.976 43.1467 259.55 42.72 258.696 42.72H255.816ZM264.936 55.68C260.819 56.1067 257.086 56.32 253.736 56.32C252.286 56.32 251.123 55.8827 250.248 55.008C249.374 54.1333 248.936 52.9707 248.936 51.52V43.84C248.936 42.24 249.384 40.992 250.28 40.096C251.198 39.1787 252.456 38.72 254.056 38.72H260.456C262.056 38.72 263.304 39.1787 264.2 40.096C265.118 40.992 265.576 42.24 265.576 43.84V49.76H254.536V51.04C254.536 51.36 254.643 51.6267 254.856 51.84C255.07 52.0533 255.336 52.16 255.656 52.16C257.768 52.16 260.862 52 264.936 51.68V55.68ZM279.804 45.28V39.04H285.404V56H279.804V49.6H274.044V56H268.444V39.04H274.044V45.28H279.804ZM299.64 39.04H305.56V56H299.96V46.72L294.52 56H288.6V39.04H294.2V48.32L299.64 39.04ZM315.316 42.72C314.463 42.72 314.036 43.1467 314.036 44V45.76H319.476V44C319.476 43.1467 319.05 42.72 318.196 42.72H315.316ZM324.436 55.68C320.319 56.1067 316.586 56.32 313.236 56.32C311.786 56.32 310.623 55.8827 309.748 55.008C308.874 54.1333 308.436 52.9707 308.436 51.52V43.84C308.436 42.24 308.884 40.992 309.78 40.096C310.698 39.1787 311.956 38.72 313.556 38.72H319.956C321.556 38.72 322.804 39.1787 323.7 40.096C324.618 40.992 325.076 42.24 325.076 43.84V49.76H314.036V51.04C314.036 51.36 314.143 51.6267 314.356 51.84C314.57 52.0533 314.836 52.16 315.156 52.16C317.268 52.16 320.362 52 324.436 51.68V55.68ZM163.739 83.92C165.809 83.4933 167.622 83.28 169.179 83.28H170.619C172.07 83.28 173.233 83.7173 174.107 84.592C174.982 85.4667 175.419 86.6293 175.419 88.08V93.2C175.419 94.8 174.961 96.0587 174.043 96.976C173.147 97.872 171.899 98.32 170.299 98.32H163.259C161.659 98.32 160.401 97.872 159.483 96.976C158.587 96.0587 158.139 94.8 158.139 93.2V81.84C158.139 80.304 158.651 79.0133 159.675 77.968C160.721 76.9227 162.129 76.2933 163.899 76.08L174.779 74.8L175.259 79.28L165.339 80.4C164.273 80.528 163.739 81.0613 163.739 82V83.92ZM168.539 94C169.393 94 169.819 93.5733 169.819 92.72V88.72C169.819 88.4 169.713 88.1333 169.499 87.92C169.286 87.7067 169.019 87.6 168.699 87.6H167.579C166.747 87.6 166.001 87.6427 165.339 87.728C164.678 87.8133 164.145 87.8773 163.739 87.92V92.72C163.739 93.5733 164.166 94 165.019 94H168.539ZM195.271 93.2C195.271 94.8 194.812 96.0587 193.895 96.976C192.999 97.872 191.751 98.32 190.151 98.32H182.791C181.191 98.32 179.932 97.872 179.015 96.976C178.119 96.0587 177.671 94.8 177.671 93.2V85.84C177.671 84.24 178.119 82.992 179.015 82.096C179.932 81.1787 181.191 80.72 182.791 80.72H190.151C191.751 80.72 192.999 81.1787 193.895 82.096C194.812 82.992 195.271 84.24 195.271 85.84V93.2ZM189.671 86.32C189.671 85.4667 189.244 85.04 188.391 85.04H184.551C183.697 85.04 183.271 85.4667 183.271 86.32V92.72C183.271 93.5733 183.697 94 184.551 94H188.391C189.244 94 189.671 93.5733 189.671 92.72V86.32ZM200.067 98.32C199.15 98.32 198.083 98.2133 196.867 98V93.84H198.147C198.958 93.84 199.384 93.4133 199.427 92.56L200.067 81.04H215.427V98H209.827V85.36H205.347L204.867 93.52C204.782 94.9707 204.302 96.1333 203.427 97.008C202.552 97.8827 201.432 98.32 200.067 98.32ZM225.176 84.72C224.322 84.72 223.896 85.1467 223.896 86V87.76H229.336V86C229.336 85.1467 228.909 84.72 228.056 84.72H225.176ZM234.296 97.68C230.178 98.1067 226.445 98.32 223.096 98.32C221.645 98.32 220.482 97.8827 219.608 97.008C218.733 96.1333 218.296 94.9707 218.296 93.52V85.84C218.296 84.24 218.744 82.992 219.64 82.096C220.557 81.1787 221.816 80.72 223.416 80.72H229.816C231.416 80.72 232.664 81.1787 233.56 82.096C234.477 82.992 234.936 84.24 234.936 85.84V91.76H223.896V93.04C223.896 93.36 224.002 93.6267 224.216 93.84C224.429 94.0533 224.696 94.16 225.016 94.16C227.128 94.16 230.221 94 234.296 93.68V97.68ZM244.523 79.44C241.75 79.44 240.363 78.0533 240.363 75.28V74.32H244.523V75.12C244.523 75.44 244.63 75.7067 244.843 75.92C245.056 76.1333 245.323 76.24 245.643 76.24H246.603C246.923 76.24 247.19 76.1333 247.403 75.92C247.616 75.7067 247.723 75.44 247.723 75.12V74.32H251.883V75.28C251.883 78.0533 250.496 79.44 247.723 79.44H244.523ZM248.843 81.04H254.763V98H249.163V88.72L243.723 98H237.803V81.04H243.403V90.32L248.843 81.04ZM279.713 98H267.553V81.04H278.753C280.182 81.04 281.334 81.4667 282.209 82.32C283.105 83.152 283.553 84.0907 283.553 85.136C283.553 86.1813 283.329 87.0347 282.881 87.696C282.433 88.3573 281.804 88.8053 280.993 89.04C281.953 89.2107 282.774 89.68 283.457 90.448C284.161 91.216 284.513 92.24 284.513 93.52C284.513 94.8 284.065 95.8667 283.169 96.72C282.294 97.5733 281.142 98 279.713 98ZM278.913 92.56C278.913 92.24 278.806 91.9733 278.593 91.76C278.38 91.5467 278.113 91.44 277.793 91.44H273.153V94.16H277.793C278.113 94.16 278.38 94.0533 278.593 93.84C278.806 93.6267 278.913 93.36 278.913 93.04V92.56ZM277.953 86C277.953 85.68 277.846 85.4133 277.633 85.2C277.42 84.9867 277.153 84.88 276.833 84.88H273.153V87.76H276.833C277.153 87.76 277.42 87.6533 277.633 87.44C277.846 87.2267 277.953 86.96 277.953 86.64V86ZM165.234 139.68C161.244 140.107 157.724 140.32 154.674 140.32C153.223 140.32 152.06 139.883 151.186 139.008C150.311 138.133 149.874 136.971 149.874 135.52V128.16C149.874 126.56 150.322 125.312 151.218 124.416C152.135 123.499 153.394 123.04 154.994 123.04H165.234V127.36H156.754C155.9 127.36 155.474 127.787 155.474 128.64V134.88C155.474 135.2 155.58 135.467 155.794 135.68C156.007 135.893 156.274 136 156.594 136C158.514 136 161.394 135.84 165.234 135.52V139.68ZM172.268 145.76C171.137 145.76 169.75 145.653 168.108 145.44V141.28H170.988C171.798 141.28 172.321 141.056 172.556 140.608C172.812 140.16 172.769 139.531 172.428 138.72L165.867 123.04H171.788L175.788 133.92L179.148 123.04H185.068L178.668 140.64C178.049 142.325 177.249 143.595 176.268 144.448C175.286 145.323 173.953 145.76 172.268 145.76ZM200.765 139.68C196.776 140.107 193.256 140.32 190.205 140.32C188.754 140.32 187.592 139.883 186.717 139.008C185.842 138.133 185.405 136.971 185.405 135.52V128.16C185.405 126.56 185.853 125.312 186.749 124.416C187.666 123.499 188.925 123.04 190.525 123.04H200.765V127.36H192.285C191.432 127.36 191.005 127.787 191.005 128.64V134.88C191.005 135.2 191.112 135.467 191.325 135.68C191.538 135.893 191.805 136 192.125 136C194.045 136 196.925 135.84 200.765 135.52V139.68ZM212.919 127.36V140H207.319V127.36H202.039V123.04H218.199V127.36H212.919ZM226.226 135.84C227.357 135.84 228.637 135.627 230.066 135.2V133.28H225.426C225.106 133.28 224.84 133.387 224.626 133.6C224.413 133.813 224.306 134.08 224.306 134.4V134.72C224.306 135.04 224.413 135.307 224.626 135.52C224.84 135.733 225.106 135.84 225.426 135.84H226.226ZM220.306 123.36C224.21 122.933 227.73 122.72 230.866 122.72C232.317 122.72 233.48 123.157 234.354 124.032C235.229 124.907 235.666 126.069 235.666 127.52V140H230.706L230.386 138.4C229.384 139.061 228.349 139.552 227.282 139.872C226.237 140.171 225.352 140.32 224.626 140.32H223.506C222.056 140.32 220.893 139.883 220.018 139.008C219.144 138.133 218.706 136.971 218.706 135.52V134.08C218.706 132.629 219.144 131.467 220.018 130.592C220.893 129.717 222.056 129.28 223.506 129.28H230.066V128C230.066 127.68 229.96 127.413 229.746 127.2C229.533 126.987 229.266 126.88 228.946 126.88C227.56 126.88 226.024 126.944 224.338 127.072C222.674 127.2 221.33 127.296 220.306 127.36V123.36ZM250.698 140H238.538V123.04H249.738C251.167 123.04 252.319 123.467 253.194 124.32C254.09 125.152 254.538 126.091 254.538 127.136C254.538 128.181 254.314 129.035 253.866 129.696C253.418 130.357 252.788 130.805 251.978 131.04C252.938 131.211 253.759 131.68 254.442 132.448C255.146 133.216 255.498 134.24 255.498 135.52C255.498 136.8 255.05 137.867 254.154 138.72C253.279 139.573 252.127 140 250.698 140ZM249.898 134.56C249.898 134.24 249.791 133.973 249.578 133.76C249.364 133.547 249.098 133.44 248.778 133.44H244.138V136.16H248.778C249.098 136.16 249.364 136.053 249.578 135.84C249.791 135.627 249.898 135.36 249.898 135.04V134.56ZM248.938 128C248.938 127.68 248.831 127.413 248.618 127.2C248.404 126.987 248.138 126.88 247.818 126.88H244.138V129.76H247.818C248.138 129.76 248.404 129.653 248.618 129.44C248.831 129.227 248.938 128.96 248.938 128.64V128ZM264.445 135.84C265.576 135.84 266.856 135.627 268.285 135.2V133.28H263.645C263.325 133.28 263.058 133.387 262.845 133.6C262.632 133.813 262.525 134.08 262.525 134.4V134.72C262.525 135.04 262.632 135.307 262.845 135.52C263.058 135.733 263.325 135.84 263.645 135.84H264.445ZM258.525 123.36C262.429 122.933 265.949 122.72 269.085 122.72C270.536 122.72 271.698 123.157 272.573 124.032C273.448 124.907 273.885 126.069 273.885 127.52V140H268.925L268.605 138.4C267.602 139.061 266.568 139.552 265.501 139.872C264.456 140.171 263.57 140.32 262.845 140.32H261.725C260.274 140.32 259.112 139.883 258.237 139.008C257.362 138.133 256.925 136.971 256.925 135.52V134.08C256.925 132.629 257.362 131.467 258.237 130.592C259.112 129.717 260.274 129.28 261.725 129.28H268.285V128C268.285 127.68 268.178 127.413 267.965 127.2C267.752 126.987 267.485 126.88 267.165 126.88C265.778 126.88 264.242 126.944 262.557 127.072C260.893 127.2 259.549 127.296 258.525 127.36V123.36ZM287.316 123.04H293.556L288.116 131.52L293.716 140H287.476L284.276 134.88L281.076 140H274.836L280.436 131.52L274.996 123.04H281.236L284.276 128.16L287.316 123.04Z" fill="black"/>
<g filter="url(#filter10_d_0_1)">
<line x1="38.5838" y1="91.206" x2="4.45561" y2="166.702" stroke="black"/>
</g>
<g filter="url(#filter11_d_0_1)">
<line x1="59.4951" y1="33.9301" x2="77.5934" y2="162.169" stroke="#8A2BEA"/>
</g>
<g filter="url(#filter12_d_0_1)">
<rect x="25.4786" y="42.5536" width="6.20513" height="6.20513" transform="rotate(-14.5 25.4786 42.5536)" fill="black"/>
</g>
<g filter="url(#filter13_d_0_1)">
<rect x="45.9308" y="143.788" width="13.4444" height="13.4444" transform="rotate(-107 45.9308 143.788)" fill="#8A2BEA"/>
</g>
<g filter="url(#filter14_d_0_1)">
<rect x="12.6124" y="69.4402" width="9.2856" height="9.2856" transform="rotate(10 12.6124 69.4402)" fill="#8A2BEA"/>
</g>
<defs>
<filter id="filter0_d_0_1" x="210.303" y="0.698257" width="78.9507" height="16.7505" filterUnits="userSpaceOnUse" color-interpolation-filters="sRGB">
<feFlood flood-opacity="0" result="BackgroundImageFix"/>
<feColorMatrix in="SourceAlpha" type="matrix" values="0 0 0 0 0 0 0 0 0 0 0 0 0 0 0 0 0 0 127 0" result="hardAlpha"/>
<feOffset dy="4"/>
<feGaussianBlur stdDeviation="2"/>
<feComposite in2="hardAlpha" operator="out"/>
<feColorMatrix type="matrix" values="0 0 0 0 0 0 0 0 0 0 0 0 0 0 0 0 0 0 0.25 0"/>
<feBlend mode="normal" in2="BackgroundImageFix" result="effect1_dropShadow_0_1"/>
<feBlend mode="normal" in="SourceGraphic" in2="effect1_dropShadow_0_1" result="shape"/>
</filter>
<filter id="filter1_d_0_1" x="314.458" y="113.16" width="113.512" height="76.5796" filterUnits="userSpaceOnUse" color-interpolation-filters="sRGB">
<feFlood flood-opacity="0" result="BackgroundImageFix"/>
<feColorMatrix in="SourceAlpha" type="matrix" values="0 0 0 0 0 0 0 0 0 0 0 0 0 0 0 0 0 0 127 0" result="hardAlpha"/>
<feOffset dy="4"/>
<feGaussianBlur stdDeviation="2"/>
<feComposite in2="hardAlpha" operator="out"/>
<feColorMatrix type="matrix" values="0 0 0 0 0 0 0 0 0 0 0 0 0 0 0 0 0 0 0.25 0"/>
<feBlend mode="normal" in2="BackgroundImageFix" result="effect1_dropShadow_0_1"/>
<feBlend mode="normal" in="SourceGraphic" in2="effect1_dropShadow_0_1" result="shape"/>
</filter>
<filter id="filter2_d_0_1" x="356" y="5" width="61.6597" height="128.884" filterUnits="userSpaceOnUse" color-interpolation-filters="sRGB">
<feFlood flood-opacity="0" result="BackgroundImageFix"/>
<feColorMatrix in="SourceAlpha" type="matrix" values="0 0 0 0 0 0 0 0 0 0 0 0 0 0 0 0 0 0 127 0" result="hardAlpha"/>
<feOffset dy="4"/>
<feGaussianBlur stdDeviation="2"/>
<feComposite in2="hardAlpha" operator="out"/>
<feColorMatrix type="matrix" values="0 0 0 0 0 0 0 0 0 0 0 0 0 0 0 0 0 0 0.25 0"/>
<feBlend mode="normal" in2="BackgroundImageFix" result="effect1_dropShadow_0_1"/>
<feBlend mode="normal" in="SourceGraphic" in2="effect1_dropShadow_0_1" result="shape"/>
</filter>
<filter id="filter3_d_0_1" x="217" y="185" width="15.3488" height="15.3488" filterUnits="userSpaceOnUse" color-interpolation-filters="sRGB">
<feFlood flood-opacity="0" result="BackgroundImageFix"/>
<feColorMatrix in="SourceAlpha" type="matrix" values="0 0 0 0 0 0 0 0 0 0 0 0 0 0 0 0 0 0 127 0" result="hardAlpha"/>
<feOffset dy="4"/>
<feGaussianBlur stdDeviation="2"/>
<feComposite in2="hardAlpha" operator="out"/>
<feColorMatrix type="matrix" values="0 0 0 0 0 0 0 0 0 0 0 0 0 0 0 0 0 0 0.25 0"/>
<feBlend mode="normal" in2="BackgroundImageFix" result="effect1_dropShadow_0_1"/>
<feBlend mode="normal" in="SourceGraphic" in2="effect1_dropShadow_0_1" result="shape"/>
</filter>
<filter id="filter4_d_0_1" x="153" y="12.8932" width="12.8501" height="12.8501" filterUnits="userSpaceOnUse" color-interpolation-filters="sRGB">
<feFlood flood-opacity="0" result="BackgroundImageFix"/>
<feColorMatrix in="SourceAlpha" type="matrix" values="0 0 0 0 0 0 0 0 0 0 0 0 0 0 0 0 0 0 127 0" result="hardAlpha"/>
<feOffset dy="4"/>
<feGaussianBlur stdDeviation="2"/>
<feComposite in2="hardAlpha" operator="out"/>
<feColorMatrix type="matrix" values="0 0 0 0 0 0 0 0 0 0 0 0 0 0 0 0 0 0 0.25 0"/>
<feBlend mode="normal" in2="BackgroundImageFix" result="effect1_dropShadow_0_1"/>
<feBlend mode="normal" in="SourceGraphic" in2="effect1_dropShadow_0_1" result="shape"/>
</filter>
<filter id="filter5_d_0_1" x="169" y="173" width="15.712" height="15.712" filterUnits="userSpaceOnUse" color-interpolation-filters="sRGB">
<feFlood flood-opacity="0" result="BackgroundImageFix"/>
<feColorMatrix in="SourceAlpha" type="matrix" values="0 0 0 0 0 0 0 0 0 0 0 0 0 0 0 0 0 0 127 0" result="hardAlpha"/>
<feOffset dy="4"/>
<feGaussianBlur stdDeviation="2"/>
<feComposite in2="hardAlpha" operator="out"/>
<feColorMatrix type="matrix" values="0 0 0 0 0 0 0 0 0 0 0 0 0 0 0 0 0 0 0.25 0"/>
<feBlend mode="normal" in2="BackgroundImageFix" result="effect1_dropShadow_0_1"/>
<feBlend mode="normal" in="SourceGraphic" in2="effect1_dropShadow_0_1" result="shape"/>
</filter>
<filter id="filter6_d_0_1" x="381" y="108" width="15.232" height="15.232" filterUnits="userSpaceOnUse" color-interpolation-filters="sRGB">
<feFlood flood-opacity="0" result="BackgroundImageFix"/>
<feColorMatrix in="SourceAlpha" type="matrix" values="0 0 0 0 0 0 0 0 0 0 0 0 0 0 0 0 0 0 127 0" result="hardAlpha"/>
<feOffset dy="4"/>
<feGaussianBlur stdDeviation="2"/>
<feComposite in2="hardAlpha" operator="out"/>
<feColorMatrix type="matrix" values="0 0 0 0 0 0 0 0 0 0 0 0 0 0 0 0 0 0 0.25 0"/>
<feBlend mode="normal" in2="BackgroundImageFix" result="effect1_dropShadow_0_1"/>
<feBlend mode="normal" in="SourceGraphic" in2="effect1_dropShadow_0_1" result="shape"/>
</filter>
<filter id="filter7_d_0_1" x="164.376" y="1" width="17.1471" height="17.1471" filterUnits="userSpaceOnUse" color-interpolation-filters="sRGB">
<feFlood flood-opacity="0" result="BackgroundImageFix"/>
<feColorMatrix in="SourceAlpha" type="matrix" values="0 0 0 0 0 0 0 0 0 0 0 0 0 0 0 0 0 0 127 0" result="hardAlpha"/>
<feOffset dy="4"/>
<feGaussianBlur stdDeviation="2"/>
<feComposite in2="hardAlpha" operator="out"/>
<feColorMatrix type="matrix" values="0 0 0 0 0 0 0 0 0 0 0 0 0 0 0 0 0 0 0.25 0"/>
<feBlend mode="normal" in2="BackgroundImageFix" result="effect1_dropShadow_0_1"/>
<feBlend mode="normal" in="SourceGraphic" in2="effect1_dropShadow_0_1" result="shape"/>
</filter>
<filter id="filter8_d_0_1" x="401" y="54" width="18.2335" height="18.2335" filterUnits="userSpaceOnUse" color-interpolation-filters="sRGB">
<feFlood flood-opacity="0" result="BackgroundImageFix"/>
<feColorMatrix in="SourceAlpha" type="matrix" values="0 0 0 0 0 0 0 0 0 0 0 0 0 0 0 0 0 0 127 0" result="hardAlpha"/>
<feOffset dy="4"/>
<feGaussianBlur stdDeviation="2"/>
<feComposite in2="hardAlpha" operator="out"/>
<feColorMatrix type="matrix" values="0 0 0 0 0 0 0 0 0 0 0 0 0 0 0 0 0 0 0.25 0"/>
<feBlend mode="normal" in2="BackgroundImageFix" result="effect1_dropShadow_0_1"/>
<feBlend mode="normal" in="SourceGraphic" in2="effect1_dropShadow_0_1" result="shape"/>
</filter>
<filter id="filter9_d_0_1" x="372" y="166" width="21.0052" height="21.0052" filterUnits="userSpaceOnUse" color-interpolation-filters="sRGB">
<feFlood flood-opacity="0" result="BackgroundImageFix"/>
<feColorMatrix in="SourceAlpha" type="matrix" values="0 0 0 0 0 0 0 0 0 0 0 0 0 0 0 0 0 0 127 0" result="hardAlpha"/>
<feOffset dy="4"/>
<feGaussianBlur stdDeviation="2"/>
<feComposite in2="hardAlpha" operator="out"/>
<feColorMatrix type="matrix" values="0 0 0 0 0 0 0 0 0 0 0 0 0 0 0 0 0 0 0.25 0"/>
<feBlend mode="normal" in2="BackgroundImageFix" result="effect1_dropShadow_0_1"/>
<feBlend mode="normal" in="SourceGraphic" in2="effect1_dropShadow_0_1" result="shape"/>
</filter>
<filter id="filter10_d_0_1" x="0" y="91" width="43.0394" height="83.9076" filterUnits="userSpaceOnUse" color-interpolation-filters="sRGB">
<feFlood flood-opacity="0" result="BackgroundImageFix"/>
<feColorMatrix in="SourceAlpha" type="matrix" values="0 0 0 0 0 0 0 0 0 0 0 0 0 0 0 0 0 0 127 0" result="hardAlpha"/>
<feOffset dy="4"/>
<feGaussianBlur stdDeviation="2"/>
<feComposite in2="hardAlpha" operator="out"/>
<feColorMatrix type="matrix" values="0 0 0 0 0 0 0 0 0 0 0 0 0 0 0 0 0 0 0.25 0"/>
<feBlend mode="normal" in2="BackgroundImageFix" result="effect1_dropShadow_0_1"/>
<feBlend mode="normal" in="SourceGraphic" in2="effect1_dropShadow_0_1" result="shape"/>
</filter>
<filter id="filter11_d_0_1" x="55" y="33.8603" width="27.0885" height="136.379" filterUnits="userSpaceOnUse" color-interpolation-filters="sRGB">
<feFlood flood-opacity="0" result="BackgroundImageFix"/>
<feColorMatrix in="SourceAlpha" type="matrix" values="0 0 0 0 0 0 0 0 0 0 0 0 0 0 0 0 0 0 127 0" result="hardAlpha"/>
<feOffset dy="4"/>
<feGaussianBlur stdDeviation="2"/>
<feComposite in2="hardAlpha" operator="out"/>
<feColorMatrix type="matrix" values="0 0 0 0 0 0 0 0 0 0 0 0 0 0 0 0 0 0 0.25 0"/>
<feBlend mode="normal" in2="BackgroundImageFix" result="effect1_dropShadow_0_1"/>
<feBlend mode="normal" in="SourceGraphic" in2="effect1_dropShadow_0_1" result="shape"/>
</filter>
<filter id="filter12_d_0_1" x="21.4786" y="41" width="15.5611" height="15.5611" filterUnits="userSpaceOnUse" color-interpolation-filters="sRGB">
<feFlood flood-opacity="0" result="BackgroundImageFix"/>
<feColorMatrix in="SourceAlpha" type="matrix" values="0 0 0 0 0 0 0 0 0 0 0 0 0 0 0 0 0 0 127 0" result="hardAlpha"/>
<feOffset dy="4"/>
<feGaussianBlur stdDeviation="2"/>
<feComposite in2="hardAlpha" operator="out"/>
<feColorMatrix type="matrix" values="0 0 0 0 0 0 0 0 0 0 0 0 0 0 0 0 0 0 0.25 0"/>
<feBlend mode="normal" in2="BackgroundImageFix" result="effect1_dropShadow_0_1"/>
<feBlend mode="normal" in="SourceGraphic" in2="effect1_dropShadow_0_1" result="shape"/>
</filter>
<filter id="filter13_d_0_1" x="38" y="127" width="24.7878" height="24.7878" filterUnits="userSpaceOnUse" color-interpolation-filters="sRGB">
<feFlood flood-opacity="0" result="BackgroundImageFix"/>
<feColorMatrix in="SourceAlpha" type="matrix" values="0 0 0 0 0 0 0 0 0 0 0 0 0 0 0 0 0 0 127 0" result="hardAlpha"/>
<feOffset dy="4"/>
<feGaussianBlur stdDeviation="2"/>
<feComposite in2="hardAlpha" operator="out"/>
<feColorMatrix type="matrix" values="0 0 0 0 0 0 0 0 0 0 0 0 0 0 0 0 0 0 0.25 0"/>
<feBlend mode="normal" in2="BackgroundImageFix" result="effect1_dropShadow_0_1"/>
<feBlend mode="normal" in="SourceGraphic" in2="effect1_dropShadow_0_1" result="shape"/>
</filter>
<filter id="filter14_d_0_1" x="7" y="69.4402" width="18.757" height="18.757" filterUnits="userSpaceOnUse" color-interpolation-filters="sRGB">
<feFlood flood-opacity="0" result="BackgroundImageFix"/>
<feColorMatrix in="SourceAlpha" type="matrix" values="0 0 0 0 0 0 0 0 0 0 0 0 0 0 0 0 0 0 127 0" result="hardAlpha"/>
<feOffset dy="4"/>
<feGaussianBlur stdDeviation="2"/>
<feComposite in2="hardAlpha" operator="out"/>
<feColorMatrix type="matrix" values="0 0 0 0 0 0 0 0 0 0 0 0 0 0 0 0 0 0 0.25 0"/>
<feBlend mode="normal" in2="BackgroundImageFix" result="effect1_dropShadow_0_1"/>
<feBlend mode="normal" in="SourceGraphic" in2="effect1_dropShadow_0_1" result="shape"/>
</filter>
</defs>
</svg>
