<svg width="428" height="201" viewBox="0 0 428 201" fill="none" xmlns="http://www.w3.org/2000/svg">
<g filter="url(#filter0_d_0_1)">
<line x1="214.358" y1="1.19529" x2="285.2" y2="8.9517" stroke="black"/>
</g>
<g filter="url(#filter1_d_0_1)">
<line x1="318.729" y1="181.319" x2="423.699" y2="113.58" stroke="black"/>
</g>
<g filter="url(#filter2_d_0_1)">
<line x1="413.202" y1="5.20051" x2="360.458" y2="125.683" stroke="#8A2BEA"/>
</g>
<g filter="url(#filter3_d_0_1)">
<rect x="222.961" y="185" width="5.73356" height="5.73356" transform="rotate(20 222.961 185)" fill="#8A2BEA"/>
</g>
<g filter="url(#filter4_d_0_1)">
<rect x="157.789" y="12.8932" width="4.13675" height="4.13675" transform="rotate(11 157.789 12.8932)" fill="black"/>
</g>
<g filter="url(#filter5_d_0_1)">
<rect x="173" y="174.762" width="6.20513" height="6.20513" transform="rotate(-16.5 173 174.762)" fill="black"/>
</g>
<g filter="url(#filter6_d_0_1)">
<rect x="386.131" y="108" width="6.20513" height="6.20513" transform="rotate(10.5 386.131 108)" fill="black"/>
</g>
<g filter="url(#filter7_d_0_1)">
<rect x="168.376" y="2.54639" width="7.75641" height="7.75641" transform="rotate(-11.5 168.376 2.54639)" fill="#8A2BEA"/>
</g>
<g filter="url(#filter8_d_0_1)">
<rect x="407.28" y="54" width="8.2735" height="8.2735" transform="rotate(16 407.28 54)" fill="#8A2BEA"/>
</g>
<g filter="url(#filter9_d_0_1)">
<rect x="376" y="168.518" width="10.7854" height="10.7854" transform="rotate(-13.5 376 168.518)" fill="#8A2BEA"/>
</g>
<path d="M132.296 39.32C131.229 39.32 130.131 39.2133 129 39V34.68H131.88C132.499 34.68 132.925 34.4347 133.16 33.944C133.267 33.7307 133.32 33.5067 133.32 33.272C133.32 33.016 133.267 32.792 133.16 32.6L124.36 16.6H130.76L136.52 27.96L141.32 16.6H147.72L139.56 34.2C138.813 35.8853 137.917 37.144 136.872 37.976C135.72 38.872 134.195 39.32 132.296 39.32ZM148.051 39.32C147.134 39.32 146.067 39.2133 144.851 39V34.84H146.131C146.942 34.84 147.369 34.4133 147.411 33.56L148.051 22.04H163.411V39H157.811V26.36H153.331L152.851 34.52C152.766 35.9707 152.286 37.1333 151.411 38.008C150.537 38.8827 149.417 39.32 148.051 39.32ZM171.08 44.76C169.949 44.76 168.563 44.6533 166.92 44.44V40.28H169.8C170.611 40.28 171.133 40.056 171.368 39.608C171.624 39.16 171.581 38.5307 171.24 37.72L164.68 22.04H170.6L174.6 32.92L177.96 22.04H183.88L177.48 39.64C176.861 41.3253 176.061 42.5947 175.08 43.448C174.099 44.3227 172.765 44.76 171.08 44.76ZM191.25 29.88C193.063 29.88 194.557 29.8267 195.73 29.72V22.04H201.33V39H195.73V33.88C193.447 34.0933 191.314 34.2 189.33 34.2C187.879 34.2 186.717 33.7627 185.842 32.888C184.967 32.0133 184.53 30.8507 184.53 29.4V22.04H190.13V28.76C190.13 29.08 190.237 29.3467 190.45 29.56C190.663 29.7733 190.93 29.88 191.25 29.88ZM204.538 39V22.04H210.138V34.68H213.818V22.04H219.418V34.68H223.098V22.04H228.698V39H204.538ZM238.473 25.72C237.619 25.72 237.193 26.1467 237.193 27V28.76H242.633V27C242.633 26.1467 242.206 25.72 241.353 25.72H238.473ZM247.593 38.68C243.475 39.1067 239.742 39.32 236.393 39.32C234.942 39.32 233.779 38.8827 232.905 38.008C232.03 37.1333 231.593 35.9707 231.593 34.52V26.84C231.593 25.24 232.041 23.992 232.937 23.096C233.854 22.1787 235.113 21.72 236.713 21.72H243.113C244.713 21.72 245.961 22.1787 246.857 23.096C247.774 23.992 248.233 25.24 248.233 26.84V32.76H237.193V34.04C237.193 34.36 237.299 34.6267 237.513 34.84C237.726 35.0533 237.993 35.16 238.312 35.16C240.425 35.16 243.518 35 247.593 34.68V38.68ZM262.46 28.28V22.04H268.06V39H262.46V32.6H256.7V39H251.1V22.04H256.7V28.28H262.46ZM282.296 22.04H288.216V39H282.616V29.72L277.176 39H271.256V22.04H276.856V31.32L282.296 22.04ZM297.973 25.72C297.119 25.72 296.693 26.1467 296.693 27V28.76H302.133V27C302.133 26.1467 301.706 25.72 300.853 25.72H297.973ZM307.093 38.68C302.975 39.1067 299.242 39.32 295.893 39.32C294.442 39.32 293.279 38.8827 292.405 38.008C291.53 37.1333 291.093 35.9707 291.093 34.52V26.84C291.093 25.24 291.541 23.992 292.437 23.096C293.354 22.1787 294.613 21.72 296.213 21.72H302.613C304.213 21.72 305.461 22.1787 306.357 23.096C307.274 23.992 307.733 25.24 307.733 26.84V32.76H296.693V34.04C296.693 34.36 296.799 34.6267 297.013 34.84C297.226 35.0533 297.493 35.16 297.812 35.16C299.925 35.16 303.018 35 307.093 34.68V38.68ZM106.044 78.12H101.884L98.6844 72.36V81H93.0844V64.04H99.0044L103.964 73L108.924 64.04H114.844V81H109.244V72.36L106.044 78.12ZM124.613 67.72C123.76 67.72 123.333 68.1467 123.333 69V70.76H128.773V69C128.773 68.1467 128.346 67.72 127.493 67.72H124.613ZM133.733 80.68C129.616 81.1067 125.882 81.32 122.533 81.32C121.082 81.32 119.92 80.8827 119.045 80.008C118.17 79.1333 117.733 77.9707 117.733 76.52V68.84C117.733 67.24 118.181 65.992 119.077 65.096C119.994 64.1787 121.253 63.72 122.853 63.72H129.253C130.853 63.72 132.101 64.1787 132.997 65.096C133.914 65.992 134.373 67.24 134.373 68.84V74.76H123.333V76.04C123.333 76.36 123.44 76.6267 123.653 76.84C123.866 77.0533 124.133 77.16 124.453 77.16C126.565 77.16 129.658 77 133.733 76.68V80.68ZM146.841 68.36V81H141.241V68.36H135.961V64.04H152.121V68.36H146.841ZM160.148 76.84C161.279 76.84 162.559 76.6267 163.988 76.2V74.28H159.348C159.028 74.28 158.761 74.3867 158.548 74.6C158.335 74.8133 158.228 75.08 158.228 75.4V75.72C158.228 76.04 158.335 76.3067 158.548 76.52C158.761 76.7333 159.028 76.84 159.348 76.84H160.148ZM154.228 64.36C158.132 63.9333 161.652 63.72 164.788 63.72C166.239 63.72 167.401 64.1573 168.276 65.032C169.151 65.9067 169.588 67.0693 169.588 68.52V81H164.628L164.308 79.4C163.305 80.0613 162.271 80.552 161.204 80.872C160.159 81.1707 159.273 81.32 158.548 81.32H157.428C155.977 81.32 154.815 80.8827 153.94 80.008C153.065 79.1333 152.628 77.9707 152.628 76.52V75.08C152.628 73.6293 153.065 72.4667 153.94 71.592C154.815 70.7173 155.977 70.28 157.428 70.28H163.988V69C163.988 68.68 163.881 68.4133 163.668 68.2C163.455 67.9867 163.188 67.88 162.868 67.88C161.481 67.88 159.945 67.944 158.26 68.072C156.596 68.2 155.252 68.296 154.228 68.36V64.36ZM177.739 66.92C179.809 66.4933 181.622 66.28 183.179 66.28H184.619C186.07 66.28 187.233 66.7173 188.107 67.592C188.982 68.4667 189.419 69.6293 189.419 71.08V76.2C189.419 77.8 188.961 79.0587 188.043 79.976C187.147 80.872 185.899 81.32 184.299 81.32H177.259C175.659 81.32 174.401 80.872 173.483 79.976C172.587 79.0587 172.139 77.8 172.139 76.2V64.84C172.139 63.304 172.651 62.0133 173.675 60.968C174.721 59.9227 176.129 59.2933 177.899 59.08L188.779 57.8L189.259 62.28L179.339 63.4C178.273 63.528 177.739 64.0613 177.739 65V66.92ZM182.539 77C183.393 77 183.819 76.5733 183.819 75.72V71.72C183.819 71.4 183.713 71.1333 183.499 70.92C183.286 70.7067 183.019 70.6 182.699 70.6H181.579C180.747 70.6 180.001 70.6427 179.339 70.728C178.678 70.8133 178.145 70.8773 177.739 70.92V75.72C177.739 76.5733 178.166 77 179.019 77H182.539ZM209.271 76.2C209.271 77.8 208.812 79.0587 207.895 79.976C206.999 80.872 205.751 81.32 204.151 81.32H196.791C195.191 81.32 193.932 80.872 193.015 79.976C192.119 79.0587 191.671 77.8 191.671 76.2V68.84C191.671 67.24 192.119 65.992 193.015 65.096C193.932 64.1787 195.191 63.72 196.791 63.72H204.151C205.751 63.72 206.999 64.1787 207.895 65.096C208.812 65.992 209.271 67.24 209.271 68.84V76.2ZM203.671 69.32C203.671 68.4667 203.244 68.04 202.391 68.04H198.551C197.697 68.04 197.271 68.4667 197.271 69.32V75.72C197.271 76.5733 197.697 77 198.551 77H202.391C203.244 77 203.671 76.5733 203.671 75.72V69.32ZM214.067 81.32C213.15 81.32 212.083 81.2133 210.867 81V76.84H212.147C212.958 76.84 213.384 76.4133 213.427 75.56L214.067 64.04H229.427V81H223.827V68.36H219.347L218.867 76.52C218.782 77.9707 218.302 79.1333 217.427 80.008C216.552 80.8827 215.432 81.32 214.067 81.32ZM243.656 64.04H249.576V81H243.976V71.72L238.536 81H232.616V64.04H238.216V73.32L243.656 64.04ZM251.812 76.84C255.887 77.16 259.087 77.32 261.412 77.32C261.732 77.32 261.999 77.2133 262.212 77C262.425 76.7867 262.532 76.52 262.532 76.2V75.72C262.532 75.4 262.425 75.1333 262.212 74.92C261.999 74.7067 261.732 74.6 261.412 74.6H254.372V70.6H260.772C261.092 70.6 261.359 70.4933 261.572 70.28C261.785 70.0667 261.892 69.8 261.892 69.48V69.16C261.892 68.84 261.785 68.5733 261.572 68.36C261.359 68.1467 261.092 68.04 260.772 68.04H252.132V64.04H262.692C264.121 64.04 265.273 64.4667 266.148 65.32C267.044 66.152 267.492 67.0907 267.492 68.136C267.492 70.2693 266.532 71.5707 264.612 72.04C265.572 72.2107 266.393 72.68 267.076 73.448C267.78 74.216 268.132 75.2827 268.132 76.648C268.132 78.0133 267.695 79.1333 266.82 80.008C265.945 80.8827 264.783 81.32 263.332 81.32C259.769 81.32 255.929 81.1067 251.812 80.68V76.84ZM283.326 78.12H279.166L275.966 72.36V81H270.366V64.04H276.286L281.246 73L286.206 64.04H292.126V81H286.526V72.36L283.326 78.12ZM302.054 76.84C303.185 76.84 304.465 76.6267 305.894 76.2V74.28H301.254C300.934 74.28 300.668 74.3867 300.454 74.6C300.241 74.8133 300.134 75.08 300.134 75.4V75.72C300.134 76.04 300.241 76.3067 300.454 76.52C300.668 76.7333 300.934 76.84 301.254 76.84H302.054ZM296.134 64.36C300.038 63.9333 303.558 63.72 306.694 63.72C308.145 63.72 309.308 64.1573 310.182 65.032C311.057 65.9067 311.494 67.0693 311.494 68.52V81H306.534L306.214 79.4C305.212 80.0613 304.177 80.552 303.11 80.872C302.065 81.1707 301.18 81.32 300.454 81.32H299.334C297.884 81.32 296.721 80.8827 295.846 80.008C294.972 79.1333 294.534 77.9707 294.534 76.52V75.08C294.534 73.6293 294.972 72.4667 295.846 71.592C296.721 70.7173 297.884 70.28 299.334 70.28H305.894V69C305.894 68.68 305.788 68.4133 305.574 68.2C305.361 67.9867 305.094 67.88 304.774 67.88C303.388 67.88 301.852 67.944 300.166 68.072C298.502 68.2 297.158 68.296 296.134 68.36V64.36ZM334.999 64.04H340.919V81H335.319V71.72L329.879 81H323.959V64.04H329.559V73.32L334.999 64.04ZM119.174 128.76C118.043 128.76 116.656 128.653 115.014 128.44V124.28H117.894C118.704 124.28 119.227 124.056 119.462 123.608C119.718 123.16 119.675 122.531 119.334 121.72L112.774 106.04H118.694L122.694 116.92L126.054 106.04H131.974L125.574 123.64C124.955 125.325 124.155 126.595 123.174 127.448C122.192 128.323 120.859 128.76 119.174 128.76ZM145.904 120.12H141.744L138.544 114.36V123H132.944V106.04H138.864L143.824 115L148.784 106.04H154.704V123H149.104V114.36L145.904 120.12ZM164.473 109.72C163.619 109.72 163.193 110.147 163.193 111V112.76H168.633V111C168.633 110.147 168.206 109.72 167.353 109.72H164.473ZM173.593 122.68C169.475 123.107 165.742 123.32 162.393 123.32C160.942 123.32 159.779 122.883 158.905 122.008C158.03 121.133 157.593 119.971 157.593 118.52V110.84C157.593 109.24 158.041 107.992 158.937 107.096C159.854 106.179 161.113 105.72 162.713 105.72H169.113C170.713 105.72 171.961 106.179 172.857 107.096C173.774 107.992 174.233 109.24 174.233 110.84V116.76H163.193V118.04C163.193 118.36 163.299 118.627 163.513 118.84C163.726 119.053 163.993 119.16 164.312 119.16C166.425 119.16 169.518 119 173.593 118.68V122.68ZM188.46 112.28V106.04H194.06V123H188.46V116.6H182.7V123H177.1V106.04H182.7V112.28H188.46ZM197.256 123V106.04H202.856V111.32H209.416C210.867 111.32 212.03 111.757 212.904 112.632C213.779 113.507 214.216 114.669 214.216 116.12V118.2C214.216 119.651 213.779 120.813 212.904 121.688C212.03 122.563 210.867 123 209.416 123H197.256ZM207.496 119C207.816 119 208.083 118.893 208.296 118.68C208.51 118.467 208.616 118.2 208.616 117.88V116.44C208.616 116.12 208.51 115.853 208.296 115.64C208.083 115.427 207.816 115.32 207.496 115.32H202.856V119H207.496ZM216.444 123V106.04H222.044V118.68H225.724V106.04H231.324V118.68H235.004V106.04H240.604V123H216.444ZM250.379 109.72C249.525 109.72 249.099 110.147 249.099 111V112.76H254.539V111C254.539 110.147 254.112 109.72 253.259 109.72H250.379ZM259.499 122.68C255.381 123.107 251.648 123.32 248.299 123.32C246.848 123.32 245.685 122.883 244.811 122.008C243.936 121.133 243.499 119.971 243.499 118.52V110.84C243.499 109.24 243.947 107.992 244.843 107.096C245.76 106.179 247.019 105.72 248.619 105.72H255.019C256.619 105.72 257.867 106.179 258.763 107.096C259.68 107.992 260.139 109.24 260.139 110.84V116.76H249.099V118.04C249.099 118.36 249.205 118.627 249.419 118.84C249.632 119.053 249.899 119.16 250.219 119.16C252.331 119.16 255.424 119 259.499 118.68V122.68ZM274.366 112.28V106.04H279.966V123H274.366V116.6H268.606V123H263.006V106.04H268.606V112.28H274.366ZM294.203 106.04H300.123V123H294.523V113.72L289.083 123H283.163V106.04H288.763V115.32L294.203 106.04ZM309.879 109.72C309.025 109.72 308.599 110.147 308.599 111V112.76H314.039V111C314.039 110.147 313.612 109.72 312.759 109.72H309.879ZM318.999 122.68C314.881 123.107 311.148 123.32 307.799 123.32C306.348 123.32 305.185 122.883 304.311 122.008C303.436 121.133 302.999 119.971 302.999 118.52V110.84C302.999 109.24 303.447 107.992 304.343 107.096C305.26 106.179 306.519 105.72 308.119 105.72H314.519C316.119 105.72 317.367 106.179 318.263 107.096C319.18 107.992 319.639 109.24 319.639 110.84V116.76H308.599V118.04C308.599 118.36 308.705 118.627 308.919 118.84C309.132 119.053 309.399 119.16 309.719 119.16C311.831 119.16 314.924 119 318.999 118.68V122.68ZM96.6269 165H90.5469L95.3469 156.52L93.7469 153.32C93.4055 152.68 92.8722 152.36 92.1469 152.36H91.0269V148.04L91.8269 147.88C92.4029 147.773 92.9895 147.72 93.5869 147.72C94.1842 147.72 94.7175 147.805 95.1869 147.976C95.6775 148.147 96.1149 148.371 96.4989 148.648C97.2455 149.181 97.8215 149.885 98.2269 150.76L99.9869 154.28H101.747V148.04H107.347V154.28H109.107L110.867 150.76C111.507 149.395 112.52 148.467 113.907 147.976C114.376 147.805 114.846 147.72 115.315 147.72C116.04 147.72 116.691 147.773 117.267 147.88L118.067 148.04V152.36H116.947C116.222 152.36 115.688 152.68 115.347 153.32L113.747 156.52L118.547 165H112.467L108.947 158.6H107.347V165H101.747V158.6H100.147L96.6269 165ZM131.187 148.04H137.107V165H131.507V155.72L126.067 165H120.147V148.04H125.747V157.32L131.187 148.04ZM149.743 152.36C148.612 152.36 147.332 152.573 145.903 153V160.68H150.703C151.556 160.68 151.983 160.253 151.983 159.4V153.48C151.983 153.16 151.876 152.893 151.663 152.68C151.45 152.467 151.183 152.36 150.863 152.36H149.743ZM145.903 165V170.44H140.303V148.04H145.263L145.583 149.64C146.586 148.979 147.61 148.499 148.655 148.2C149.722 147.88 150.618 147.72 151.343 147.72H152.783C154.234 147.72 155.396 148.157 156.271 149.032C157.146 149.907 157.583 151.069 157.583 152.52V159.88C157.583 161.48 157.124 162.739 156.207 163.656C155.311 164.552 154.063 165 152.463 165H145.903ZM177.739 160.2C177.739 161.8 177.281 163.059 176.363 163.976C175.467 164.872 174.219 165.32 172.619 165.32H165.259C163.659 165.32 162.401 164.872 161.483 163.976C160.587 163.059 160.139 161.8 160.139 160.2V152.84C160.139 151.24 160.587 149.992 161.483 149.096C162.401 148.179 163.659 147.72 165.259 147.72H172.619C174.219 147.72 175.467 148.179 176.363 149.096C177.281 149.992 177.739 151.24 177.739 152.84V160.2ZM172.139 153.32C172.139 152.467 171.713 152.04 170.859 152.04H167.019C166.166 152.04 165.739 152.467 165.739 153.32V159.72C165.739 160.573 166.166 161 167.019 161H170.859C171.713 161 172.139 160.573 172.139 159.72V153.32ZM192.776 165H180.616V148.04H191.816C193.245 148.04 194.397 148.467 195.272 149.32C196.168 150.152 196.616 151.091 196.616 152.136C196.616 153.181 196.392 154.035 195.944 154.696C195.496 155.357 194.866 155.805 194.056 156.04C195.016 156.211 195.837 156.68 196.52 157.448C197.224 158.216 197.576 159.24 197.576 160.52C197.576 161.8 197.128 162.867 196.232 163.72C195.357 164.573 194.205 165 192.776 165ZM191.976 159.56C191.976 159.24 191.869 158.973 191.656 158.76C191.442 158.547 191.176 158.44 190.856 158.44H186.216V161.16H190.856C191.176 161.16 191.442 161.053 191.656 160.84C191.869 160.627 191.976 160.36 191.976 160.04V159.56ZM191.016 153C191.016 152.68 190.909 152.413 190.696 152.2C190.482 151.987 190.216 151.88 189.896 151.88H186.216V154.76H189.896C190.216 154.76 190.482 154.653 190.696 154.44C190.909 154.227 191.016 153.96 191.016 153.64V153ZM217.083 160.2C217.083 161.8 216.624 163.059 215.707 163.976C214.811 164.872 213.563 165.32 211.963 165.32H204.603C203.003 165.32 201.744 164.872 200.827 163.976C199.931 163.059 199.483 161.8 199.483 160.2V152.84C199.483 151.24 199.931 149.992 200.827 149.096C201.744 148.179 203.003 147.72 204.603 147.72H211.963C213.563 147.72 214.811 148.179 215.707 149.096C216.624 149.992 217.083 151.24 217.083 152.84V160.2ZM211.483 153.32C211.483 152.467 211.056 152.04 210.203 152.04H206.363C205.51 152.04 205.083 152.467 205.083 153.32V159.72C205.083 160.573 205.51 161 206.363 161H210.203C211.056 161 211.483 160.573 211.483 159.72V153.32ZM226.679 146.44C223.906 146.44 222.519 145.053 222.519 142.28V141.32H226.679V142.12C226.679 142.44 226.786 142.707 226.999 142.92C227.213 143.133 227.479 143.24 227.799 143.24H228.759C229.079 143.24 229.346 143.133 229.559 142.92C229.773 142.707 229.879 142.44 229.879 142.12V141.32H234.039V142.28C234.039 145.053 232.653 146.44 229.879 146.44H226.679ZM230.999 148.04H236.919V165H231.319V155.72L225.879 165H219.959V148.04H225.559V157.32L230.999 148.04ZM259.309 152.36V165H253.709V152.36H248.429V148.04H264.589V152.36H259.309ZM274.522 158.6H272.122V165H266.522V148.04H272.122V154.28H274.682L276.442 150.76C277.082 149.395 278.085 148.467 279.45 147.976C279.941 147.805 280.41 147.72 280.858 147.72C281.583 147.72 282.245 147.773 282.842 147.88L283.642 148.04V152.36H282.522C281.797 152.36 281.263 152.68 280.922 153.32L279.322 156.52L284.122 165H278.042L274.522 158.6ZM292.429 160.84C293.56 160.84 294.84 160.627 296.269 160.2V158.28H291.629C291.309 158.28 291.043 158.387 290.829 158.6C290.616 158.813 290.509 159.08 290.509 159.4V159.72C290.509 160.04 290.616 160.307 290.829 160.52C291.043 160.733 291.309 160.84 291.629 160.84H292.429ZM286.509 148.36C290.413 147.933 293.933 147.72 297.069 147.72C298.52 147.72 299.683 148.157 300.557 149.032C301.432 149.907 301.869 151.069 301.869 152.52V165H296.909L296.589 163.4C295.587 164.061 294.552 164.552 293.485 164.872C292.44 165.171 291.555 165.32 290.829 165.32H289.709C288.259 165.32 287.096 164.883 286.221 164.008C285.347 163.133 284.909 161.971 284.909 160.52V159.08C284.909 157.629 285.347 156.467 286.221 155.592C287.096 154.717 288.259 154.28 289.709 154.28H296.269V153C296.269 152.68 296.163 152.413 295.949 152.2C295.736 151.987 295.469 151.88 295.149 151.88C293.763 151.88 292.227 151.944 290.541 152.072C288.877 152.2 287.533 152.296 286.509 152.36V148.36ZM316.101 154.28V148.04H321.701V165H316.101V158.6H310.341V165H304.741V148.04H310.341V154.28H316.101ZM335.937 148.04H341.857V165H336.257V155.72L330.817 165H324.897V148.04H330.497V157.32L335.937 148.04Z" fill="black"/>
<g filter="url(#filter10_d_0_1)">
<line x1="38.5838" y1="91.206" x2="4.45561" y2="166.702" stroke="black"/>
</g>
<g filter="url(#filter11_d_0_1)">
<line x1="59.4951" y1="33.9301" x2="77.5934" y2="162.169" stroke="#8A2BEA"/>
</g>
<g filter="url(#filter12_d_0_1)">
<rect x="25.4786" y="42.5536" width="6.20513" height="6.20513" transform="rotate(-14.5 25.4786 42.5536)" fill="black"/>
</g>
<g filter="url(#filter13_d_0_1)">
<rect x="45.9308" y="143.788" width="13.4444" height="13.4444" transform="rotate(-107 45.9308 143.788)" fill="#8A2BEA"/>
</g>
<g filter="url(#filter14_d_0_1)">
<rect x="12.6124" y="69.4402" width="9.2856" height="9.2856" transform="rotate(10 12.6124 69.4402)" fill="#8A2BEA"/>
</g>
<defs>
<filter id="filter0_d_0_1" x="210.303" y="0.698257" width="78.9507" height="16.7505" filterUnits="userSpaceOnUse" color-interpolation-filters="sRGB">
<feFlood flood-opacity="0" result="BackgroundImageFix"/>
<feColorMatrix in="SourceAlpha" type="matrix" values="0 0 0 0 0 0 0 0 0 0 0 0 0 0 0 0 0 0 127 0" result="hardAlpha"/>
<feOffset dy="4"/>
<feGaussianBlur stdDeviation="2"/>
<feComposite in2="hardAlpha" operator="out"/>
<feColorMatrix type="matrix" values="0 0 0 0 0 0 0 0 0 0 0 0 0 0 0 0 0 0 0.25 0"/>
<feBlend mode="normal" in2="BackgroundImageFix" result="effect1_dropShadow_0_1"/>
<feBlend mode="normal" in="SourceGraphic" in2="effect1_dropShadow_0_1" result="shape"/>
</filter>
<filter id="filter1_d_0_1" x="314.458" y="113.16" width="113.512" height="76.5796" filterUnits="userSpaceOnUse" color-interpolation-filters="sRGB">
<feFlood flood-opacity="0" result="BackgroundImageFix"/>
<feColorMatrix in="SourceAlpha" type="matrix" values="0 0 0 0 0 0 0 0 0 0 0 0 0 0 0 0 0 0 127 0" result="hardAlpha"/>
<feOffset dy="4"/>
<feGaussianBlur stdDeviation="2"/>
<feComposite in2="hardAlpha" operator="out"/>
<feColorMatrix type="matrix" values="0 0 0 0 0 0 0 0 0 0 0 0 0 0 0 0 0 0 0.25 0"/>
<feBlend mode="normal" in2="BackgroundImageFix" result="effect1_dropShadow_0_1"/>
<feBlend mode="normal" in="SourceGraphic" in2="effect1_dropShadow_0_1" result="shape"/>
</filter>
<filter id="filter2_d_0_1" x="356" y="5" width="61.6597" height="128.884" filterUnits="userSpaceOnUse" color-interpolation-filters="sRGB">
<feFlood flood-opacity="0" result="BackgroundImageFix"/>
<feColorMatrix in="SourceAlpha" type="matrix" values="0 0 0 0 0 0 0 0 0 0 0 0 0 0 0 0 0 0 127 0" result="hardAlpha"/>
<feOffset dy="4"/>
<feGaussianBlur stdDeviation="2"/>
<feComposite in2="hardAlpha" operator="out"/>
<feColorMatrix type="matrix" values="0 0 0 0 0 0 0 0 0 0 0 0 0 0 0 0 0 0 0.25 0"/>
<feBlend mode="normal" in2="BackgroundImageFix" result="effect1_dropShadow_0_1"/>
<feBlend mode="normal" in="SourceGraphic" in2="effect1_dropShadow_0_1" result="shape"/>
</filter>
<filter id="filter3_d_0_1" x="217" y="185" width="15.3488" height="15.3488" filterUnits="userSpaceOnUse" color-interpolation-filters="sRGB">
<feFlood flood-opacity="0" result="BackgroundImageFix"/>
<feColorMatrix in="SourceAlpha" type="matrix" values="0 0 0 0 0 0 0 0 0 0 0 0 0 0 0 0 0 0 127 0" result="hardAlpha"/>
<feOffset dy="4"/>
<feGaussianBlur stdDeviation="2"/>
<feComposite in2="hardAlpha" operator="out"/>
<feColorMatrix type="matrix" values="0 0 0 0 0 0 0 0 0 0 0 0 0 0 0 0 0 0 0.25 0"/>
<feBlend mode="normal" in2="BackgroundImageFix" result="effect1_dropShadow_0_1"/>
<feBlend mode="normal" in="SourceGraphic" in2="effect1_dropShadow_0_1" result="shape"/>
</filter>
<filter id="filter4_d_0_1" x="153" y="12.8932" width="12.8501" height="12.8501" filterUnits="userSpaceOnUse" color-interpolation-filters="sRGB">
<feFlood flood-opacity="0" result="BackgroundImageFix"/>
<feColorMatrix in="SourceAlpha" type="matrix" values="0 0 0 0 0 0 0 0 0 0 0 0 0 0 0 0 0 0 127 0" result="hardAlpha"/>
<feOffset dy="4"/>
<feGaussianBlur stdDeviation="2"/>
<feComposite in2="hardAlpha" operator="out"/>
<feColorMatrix type="matrix" values="0 0 0 0 0 0 0 0 0 0 0 0 0 0 0 0 0 0 0.25 0"/>
<feBlend mode="normal" in2="BackgroundImageFix" result="effect1_dropShadow_0_1"/>
<feBlend mode="normal" in="SourceGraphic" in2="effect1_dropShadow_0_1" result="shape"/>
</filter>
<filter id="filter5_d_0_1" x="169" y="173" width="15.712" height="15.712" filterUnits="userSpaceOnUse" color-interpolation-filters="sRGB">
<feFlood flood-opacity="0" result="BackgroundImageFix"/>
<feColorMatrix in="SourceAlpha" type="matrix" values="0 0 0 0 0 0 0 0 0 0 0 0 0 0 0 0 0 0 127 0" result="hardAlpha"/>
<feOffset dy="4"/>
<feGaussianBlur stdDeviation="2"/>
<feComposite in2="hardAlpha" operator="out"/>
<feColorMatrix type="matrix" values="0 0 0 0 0 0 0 0 0 0 0 0 0 0 0 0 0 0 0.25 0"/>
<feBlend mode="normal" in2="BackgroundImageFix" result="effect1_dropShadow_0_1"/>
<feBlend mode="normal" in="SourceGraphic" in2="effect1_dropShadow_0_1" result="shape"/>
</filter>
<filter id="filter6_d_0_1" x="381" y="108" width="15.232" height="15.232" filterUnits="userSpaceOnUse" color-interpolation-filters="sRGB">
<feFlood flood-opacity="0" result="BackgroundImageFix"/>
<feColorMatrix in="SourceAlpha" type="matrix" values="0 0 0 0 0 0 0 0 0 0 0 0 0 0 0 0 0 0 127 0" result="hardAlpha"/>
<feOffset dy="4"/>
<feGaussianBlur stdDeviation="2"/>
<feComposite in2="hardAlpha" operator="out"/>
<feColorMatrix type="matrix" values="0 0 0 0 0 0 0 0 0 0 0 0 0 0 0 0 0 0 0.25 0"/>
<feBlend mode="normal" in2="BackgroundImageFix" result="effect1_dropShadow_0_1"/>
<feBlend mode="normal" in="SourceGraphic" in2="effect1_dropShadow_0_1" result="shape"/>
</filter>
<filter id="filter7_d_0_1" x="164.376" y="1" width="17.1471" height="17.1471" filterUnits="userSpaceOnUse" color-interpolation-filters="sRGB">
<feFlood flood-opacity="0" result="BackgroundImageFix"/>
<feColorMatrix in="SourceAlpha" type="matrix" values="0 0 0 0 0 0 0 0 0 0 0 0 0 0 0 0 0 0 127 0" result="hardAlpha"/>
<feOffset dy="4"/>
<feGaussianBlur stdDeviation="2"/>
<feComposite in2="hardAlpha" operator="out"/>
<feColorMatrix type="matrix" values="0 0 0 0 0 0 0 0 0 0 0 0 0 0 0 0 0 0 0.25 0"/>
<feBlend mode="normal" in2="BackgroundImageFix" result="effect1_dropShadow_0_1"/>
<feBlend mode="normal" in="SourceGraphic" in2="effect1_dropShadow_0_1" result="shape"/>
</filter>
<filter id="filter8_d_0_1" x="401" y="54" width="18.2335" height="18.2335" filterUnits="userSpaceOnUse" color-interpolation-filters="sRGB">
<feFlood flood-opacity="0" result="BackgroundImageFix"/>
<feColorMatrix in="SourceAlpha" type="matrix" values="0 0 0 0 0 0 0 0 0 0 0 0 0 0 0 0 0 0 127 0" result="hardAlpha"/>
<feOffset dy="4"/>
<feGaussianBlur stdDeviation="2"/>
<feComposite in2="hardAlpha" operator="out"/>
<feColorMatrix type="matrix" values="0 0 0 0 0 0 0 0 0 0 0 0 0 0 0 0 0 0 0.25 0"/>
<feBlend mode="normal" in2="BackgroundImageFix" result="effect1_dropShadow_0_1"/>
<feBlend mode="normal" in="SourceGraphic" in2="effect1_dropShadow_0_1" result="shape"/>
</filter>
<filter id="filter9_d_0_1" x="372" y="166" width="21.0052" height="21.0052" filterUnits="userSpaceOnUse" color-interpolation-filters="sRGB">
<feFlood flood-opacity="0" result="BackgroundImageFix"/>
<feColorMatrix in="SourceAlpha" type="matrix" values="0 0 0 0 0 0 0 0 0 0 0 0 0 0 0 0 0 0 127 0" result="hardAlpha"/>
<feOffset dy="4"/>
<feGaussianBlur stdDeviation="2"/>
<feComposite in2="hardAlpha" operator="out"/>
<feColorMatrix type="matrix" values="0 0 0 0 0 0 0 0 0 0 0 0 0 0 0 0 0 0 0.25 0"/>
<feBlend mode="normal" in2="BackgroundImageFix" result="effect1_dropShadow_0_1"/>
<feBlend mode="normal" in="SourceGraphic" in2="effect1_dropShadow_0_1" result="shape"/>
</filter>
<filter id="filter10_d_0_1" x="0" y="91" width="43.0394" height="83.9076" filterUnits="userSpaceOnUse" color-interpolation-filters="sRGB">
<feFlood flood-opacity="0" result="BackgroundImageFix"/>
<feColorMatrix in="SourceAlpha" type="matrix" values="0 0 0 0 0 0 0 0 0 0 0 0 0 0 0 0 0 0 127 0" result="hardAlpha"/>
<feOffset dy="4"/>
<feGaussianBlur stdDeviation="2"/>
<feComposite in2="hardAlpha" operator="out"/>
<feColorMatrix type="matrix" values="0 0 0 0 0 0 0 0 0 0 0 0 0 0 0 0 0 0 0.25 0"/>
<feBlend mode="normal" in2="BackgroundImageFix" result="effect1_dropShadow_0_1"/>
<feBlend mode="normal" in="SourceGraphic" in2="effect1_dropShadow_0_1" result="shape"/>
</filter>
<filter id="filter11_d_0_1" x="55" y="33.8603" width="27.0885" height="136.379" filterUnits="userSpaceOnUse" color-interpolation-filters="sRGB">
<feFlood flood-opacity="0" result="BackgroundImageFix"/>
<feColorMatrix in="SourceAlpha" type="matrix" values="0 0 0 0 0 0 0 0 0 0 0 0 0 0 0 0 0 0 127 0" result="hardAlpha"/>
<feOffset dy="4"/>
<feGaussianBlur stdDeviation="2"/>
<feComposite in2="hardAlpha" operator="out"/>
<feColorMatrix type="matrix" values="0 0 0 0 0 0 0 0 0 0 0 0 0 0 0 0 0 0 0.25 0"/>
<feBlend mode="normal" in2="BackgroundImageFix" result="effect1_dropShadow_0_1"/>
<feBlend mode="normal" in="SourceGraphic" in2="effect1_dropShadow_0_1" result="shape"/>
</filter>
<filter id="filter12_d_0_1" x="21.4786" y="41" width="15.5611" height="15.5611" filterUnits="userSpaceOnUse" color-interpolation-filters="sRGB">
<feFlood flood-opacity="0" result="BackgroundImageFix"/>
<feColorMatrix in="SourceAlpha" type="matrix" values="0 0 0 0 0 0 0 0 0 0 0 0 0 0 0 0 0 0 127 0" result="hardAlpha"/>
<feOffset dy="4"/>
<feGaussianBlur stdDeviation="2"/>
<feComposite in2="hardAlpha" operator="out"/>
<feColorMatrix type="matrix" values="0 0 0 0 0 0 0 0 0 0 0 0 0 0 0 0 0 0 0.25 0"/>
<feBlend mode="normal" in2="BackgroundImageFix" result="effect1_dropShadow_0_1"/>
<feBlend mode="normal" in="SourceGraphic" in2="effect1_dropShadow_0_1" result="shape"/>
</filter>
<filter id="filter13_d_0_1" x="38" y="127" width="24.7878" height="24.7878" filterUnits="userSpaceOnUse" color-interpolation-filters="sRGB">
<feFlood flood-opacity="0" result="BackgroundImageFix"/>
<feColorMatrix in="SourceAlpha" type="matrix" values="0 0 0 0 0 0 0 0 0 0 0 0 0 0 0 0 0 0 127 0" result="hardAlpha"/>
<feOffset dy="4"/>
<feGaussianBlur stdDeviation="2"/>
<feComposite in2="hardAlpha" operator="out"/>
<feColorMatrix type="matrix" values="0 0 0 0 0 0 0 0 0 0 0 0 0 0 0 0 0 0 0.25 0"/>
<feBlend mode="normal" in2="BackgroundImageFix" result="effect1_dropShadow_0_1"/>
<feBlend mode="normal" in="SourceGraphic" in2="effect1_dropShadow_0_1" result="shape"/>
</filter>
<filter id="filter14_d_0_1" x="7" y="69.4402" width="18.757" height="18.757" filterUnits="userSpaceOnUse" color-interpolation-filters="sRGB">
<feFlood flood-opacity="0" result="BackgroundImageFix"/>
<feColorMatrix in="SourceAlpha" type="matrix" values="0 0 0 0 0 0 0 0 0 0 0 0 0 0 0 0 0 0 127 0" result="hardAlpha"/>
<feOffset dy="4"/>
<feGaussianBlur stdDeviation="2"/>
<feComposite in2="hardAlpha" operator="out"/>
<feColorMatrix type="matrix" values="0 0 0 0 0 0 0 0 0 0 0 0 0 0 0 0 0 0 0.25 0"/>
<feBlend mode="normal" in2="BackgroundImageFix" result="effect1_dropShadow_0_1"/>
<feBlend mode="normal" in="SourceGraphic" in2="effect1_dropShadow_0_1" result="shape"/>
</filter>
</defs>
</svg>
