<svg width="428" height="201" viewBox="0 0 428 201" fill="none" xmlns="http://www.w3.org/2000/svg">
<g filter="url(#filter0_d_0_1)">
<line x1="214.358" y1="1.19529" x2="285.2" y2="8.9517" stroke="black"/>
</g>
<g filter="url(#filter1_d_0_1)">
<line x1="318.729" y1="181.319" x2="423.699" y2="113.58" stroke="black"/>
</g>
<g filter="url(#filter2_d_0_1)">
<line x1="413.202" y1="5.20051" x2="360.458" y2="125.683" stroke="#8A2BEA"/>
</g>
<g filter="url(#filter3_d_0_1)">
<rect x="222.961" y="185" width="5.73356" height="5.73356" transform="rotate(20 222.961 185)" fill="#8A2BEA"/>
</g>
<g filter="url(#filter4_d_0_1)">
<rect x="157.789" y="12.8932" width="4.13675" height="4.13675" transform="rotate(11 157.789 12.8932)" fill="black"/>
</g>
<g filter="url(#filter5_d_0_1)">
<rect x="173" y="174.762" width="6.20513" height="6.20513" transform="rotate(-16.5 173 174.762)" fill="black"/>
</g>
<g filter="url(#filter6_d_0_1)">
<rect x="386.131" y="108" width="6.20513" height="6.20513" transform="rotate(10.5 386.131 108)" fill="black"/>
</g>
<g filter="url(#filter7_d_0_1)">
<rect x="168.376" y="2.54639" width="7.75641" height="7.75641" transform="rotate(-11.5 168.376 2.54639)" fill="#8A2BEA"/>
</g>
<g filter="url(#filter8_d_0_1)">
<rect x="407.28" y="54" width="8.2735" height="8.2735" transform="rotate(16 407.28 54)" fill="#8A2BEA"/>
</g>
<g filter="url(#filter9_d_0_1)">
<rect x="376" y="168.518" width="10.7854" height="10.7854" transform="rotate(-13.5 376 168.518)" fill="#8A2BEA"/>
</g>
<path d="M136.296 77.32C135.229 77.32 134.131 77.2133 133 77V72.68H135.88C136.499 72.68 136.925 72.4347 137.16 71.944C137.267 71.7307 137.32 71.5067 137.32 71.272C137.32 71.016 137.267 70.792 137.16 70.6L128.36 54.6H134.76L140.52 65.96L145.32 54.6H151.72L143.56 72.2C142.813 73.8853 141.917 75.144 140.872 75.976C139.72 76.872 138.195 77.32 136.296 77.32ZM152.051 77.32C151.134 77.32 150.067 77.2133 148.851 77V72.84H150.131C150.942 72.84 151.369 72.4133 151.411 71.56L152.051 60.04H167.411V77H161.811V64.36H157.331L156.851 72.52C156.766 73.9707 156.286 75.1333 155.411 76.008C154.537 76.8827 153.417 77.32 152.051 77.32ZM175.08 82.76C173.949 82.76 172.563 82.6533 170.92 82.44V78.28H173.8C174.611 78.28 175.133 78.056 175.368 77.608C175.624 77.16 175.581 76.5307 175.24 75.72L168.68 60.04H174.6L178.6 70.92L181.96 60.04H187.88L181.48 77.64C180.861 79.3253 180.061 80.5947 179.08 81.448C178.099 82.3227 176.765 82.76 175.08 82.76ZM195.25 67.88C197.063 67.88 198.557 67.8267 199.73 67.72V60.04H205.33V77H199.73V71.88C197.447 72.0933 195.314 72.2 193.33 72.2C191.879 72.2 190.717 71.7627 189.842 70.888C188.967 70.0133 188.53 68.8507 188.53 67.4V60.04H194.13V66.76C194.13 67.08 194.237 67.3467 194.45 67.56C194.663 67.7733 194.93 67.88 195.25 67.88ZM208.538 77V60.04H214.138V72.68H217.818V60.04H223.418V72.68H227.098V60.04H232.698V77H208.538ZM242.473 63.72C241.619 63.72 241.193 64.1467 241.193 65V66.76H246.633V65C246.633 64.1467 246.206 63.72 245.353 63.72H242.473ZM251.593 76.68C247.475 77.1067 243.742 77.32 240.393 77.32C238.942 77.32 237.779 76.8827 236.905 76.008C236.03 75.1333 235.593 73.9707 235.593 72.52V64.84C235.593 63.24 236.041 61.992 236.937 61.096C237.854 60.1787 239.113 59.72 240.713 59.72H247.113C248.713 59.72 249.961 60.1787 250.857 61.096C251.774 61.992 252.233 63.24 252.233 64.84V70.76H241.193V72.04C241.193 72.36 241.299 72.6267 241.513 72.84C241.726 73.0533 241.993 73.16 242.312 73.16C244.425 73.16 247.518 73 251.593 72.68V76.68ZM266.46 66.28V60.04H272.06V77H266.46V70.6H260.7V77H255.1V60.04H260.7V66.28H266.46ZM286.296 60.04H292.216V77H286.616V67.72L281.176 77H275.256V60.04H280.856V69.32L286.296 60.04ZM301.973 63.72C301.119 63.72 300.693 64.1467 300.693 65V66.76H306.133V65C306.133 64.1467 305.706 63.72 304.853 63.72H301.973ZM311.093 76.68C306.975 77.1067 303.242 77.32 299.893 77.32C298.442 77.32 297.279 76.8827 296.405 76.008C295.53 75.1333 295.093 73.9707 295.093 72.52V64.84C295.093 63.24 295.541 61.992 296.437 61.096C297.354 60.1787 298.613 59.72 300.213 59.72H306.613C308.213 59.72 309.461 60.1787 310.357 61.096C311.274 61.992 311.733 63.24 311.733 64.84V70.76H300.693V72.04C300.693 72.36 300.799 72.6267 301.013 72.84C301.226 73.0533 301.493 73.16 301.812 73.16C303.925 73.16 307.018 73 311.093 72.68V76.68ZM115.182 119H103.022V102.04H114.222C115.651 102.04 116.803 102.467 117.678 103.32C118.574 104.152 119.022 105.091 119.022 106.136C119.022 107.181 118.798 108.035 118.35 108.696C117.902 109.357 117.273 109.805 116.462 110.04C117.422 110.211 118.243 110.68 118.926 111.448C119.63 112.216 119.982 113.24 119.982 114.52C119.982 115.8 119.534 116.867 118.638 117.72C117.763 118.573 116.611 119 115.182 119ZM114.382 113.56C114.382 113.24 114.275 112.973 114.062 112.76C113.849 112.547 113.582 112.44 113.262 112.44H108.622V115.16H113.262C113.582 115.16 113.849 115.053 114.062 114.84C114.275 114.627 114.382 114.36 114.382 114.04V113.56ZM113.422 107C113.422 106.68 113.315 106.413 113.102 106.2C112.889 105.987 112.622 105.88 112.302 105.88H108.622V108.76H112.302C112.622 108.76 112.889 108.653 113.102 108.44C113.315 108.227 113.422 107.96 113.422 107.64V107ZM122.209 119V102.04H127.809V107.32H134.049C135.5 107.32 136.663 107.757 137.537 108.632C138.412 109.507 138.849 110.669 138.849 112.12V114.2C138.849 115.651 138.412 116.813 137.537 117.688C136.663 118.563 135.5 119 134.049 119H122.209ZM132.129 115C132.449 115 132.716 114.893 132.929 114.68C133.143 114.467 133.249 114.2 133.249 113.88V112.472C133.249 112.152 133.143 111.885 132.929 111.672C132.716 111.459 132.449 111.352 132.129 111.352H127.809V115H132.129ZM146.529 119H140.929V102.04H146.529V119ZM161.101 108.28V102.04H166.701V119H161.101V112.6H155.341V119H149.741V102.04H155.341V108.28H161.101ZM187.177 114.2C187.177 115.8 186.718 117.059 185.801 117.976C184.905 118.872 183.657 119.32 182.057 119.32H174.697C173.097 119.32 171.838 118.872 170.921 117.976C170.025 117.059 169.577 115.8 169.577 114.2V106.84C169.577 105.24 170.025 103.992 170.921 103.096C171.838 102.179 173.097 101.72 174.697 101.72H182.057C183.657 101.72 184.905 102.179 185.801 103.096C186.718 103.992 187.177 105.24 187.177 106.84V114.2ZM181.577 107.32C181.577 106.467 181.15 106.04 180.297 106.04H176.457C175.604 106.04 175.177 106.467 175.177 107.32V113.72C175.177 114.573 175.604 115 176.457 115H180.297C181.15 115 181.577 114.573 181.577 113.72V107.32ZM205.093 118.68C201.104 119.107 197.584 119.32 194.533 119.32C193.082 119.32 191.92 118.883 191.045 118.008C190.17 117.133 189.733 115.971 189.733 114.52V107.16C189.733 105.56 190.181 104.312 191.077 103.416C191.994 102.499 193.253 102.04 194.853 102.04H205.093V106.36H196.613C195.76 106.36 195.333 106.787 195.333 107.64V113.88C195.333 114.2 195.44 114.467 195.653 114.68C195.866 114.893 196.133 115 196.453 115C198.373 115 201.253 114.84 205.093 114.52V118.68ZM209.567 119.32C208.65 119.32 207.583 119.213 206.367 119V114.84H207.647C208.458 114.84 208.884 114.413 208.927 113.56L209.567 102.04H224.927V119H219.327V106.36H214.847L214.367 114.52C214.282 115.971 213.802 117.133 212.927 118.008C212.052 118.883 210.932 119.32 209.567 119.32ZM239.156 102.04H245.076V119H239.476V109.72L234.036 119H228.116V102.04H233.716V111.32L239.156 102.04ZM260.432 119H248.272V102.04H259.472C260.901 102.04 262.053 102.467 262.928 103.32C263.824 104.152 264.272 105.091 264.272 106.136C264.272 107.181 264.048 108.035 263.6 108.696C263.152 109.357 262.523 109.805 261.712 110.04C262.672 110.211 263.493 110.68 264.176 111.448C264.88 112.216 265.232 113.24 265.232 114.52C265.232 115.8 264.784 116.867 263.888 117.72C263.013 118.573 261.861 119 260.432 119ZM259.632 113.56C259.632 113.24 259.525 112.973 259.312 112.76C259.099 112.547 258.832 112.44 258.512 112.44H253.872V115.16H258.512C258.832 115.16 259.099 115.053 259.312 114.84C259.525 114.627 259.632 114.36 259.632 114.04V113.56ZM258.672 107C258.672 106.68 258.565 106.413 258.352 106.2C258.139 105.987 257.872 105.88 257.552 105.88H253.872V108.76H257.552C257.872 108.76 258.139 108.653 258.352 108.44C258.565 108.227 258.672 107.96 258.672 107.64V107ZM284.739 114.2C284.739 115.8 284.281 117.059 283.363 117.976C282.467 118.872 281.219 119.32 279.619 119.32H272.259C270.659 119.32 269.401 118.872 268.483 117.976C267.587 117.059 267.139 115.8 267.139 114.2V106.84C267.139 105.24 267.587 103.992 268.483 103.096C269.401 102.179 270.659 101.72 272.259 101.72H279.619C281.219 101.72 282.467 102.179 283.363 103.096C284.281 103.992 284.739 105.24 284.739 106.84V114.2ZM279.139 107.32C279.139 106.467 278.713 106.04 277.859 106.04H274.019C273.166 106.04 272.739 106.467 272.739 107.32V113.72C272.739 114.573 273.166 115 274.019 115H277.859C278.713 115 279.139 114.573 279.139 113.72V107.32ZM302.656 118.68C298.666 119.107 295.146 119.32 292.096 119.32C290.645 119.32 289.482 118.883 288.608 118.008C287.733 117.133 287.296 115.971 287.296 114.52V107.16C287.296 105.56 287.744 104.312 288.64 103.416C289.557 102.499 290.816 102.04 292.416 102.04H302.656V106.36H294.176C293.322 106.36 292.896 106.787 292.896 107.64V113.88C292.896 114.2 293.002 114.467 293.216 114.68C293.429 114.893 293.696 115 294.016 115C295.936 115 298.816 114.84 302.656 114.52V118.68ZM314.809 106.36V119H309.209V106.36H303.929V102.04H320.089V106.36H314.809ZM333.062 102.04H338.982V119H333.382V109.72L327.942 119H322.022V102.04H327.622V111.32L333.062 102.04Z" fill="black"/>
<g filter="url(#filter10_d_0_1)">
<line x1="38.5838" y1="91.206" x2="4.45561" y2="166.702" stroke="black"/>
</g>
<g filter="url(#filter11_d_0_1)">
<line x1="59.4951" y1="33.9301" x2="77.5934" y2="162.169" stroke="#8A2BEA"/>
</g>
<g filter="url(#filter12_d_0_1)">
<rect x="25.4786" y="42.5536" width="6.20513" height="6.20513" transform="rotate(-14.5 25.4786 42.5536)" fill="black"/>
</g>
<g filter="url(#filter13_d_0_1)">
<rect x="45.9308" y="143.788" width="13.4444" height="13.4444" transform="rotate(-107 45.9308 143.788)" fill="#8A2BEA"/>
</g>
<g filter="url(#filter14_d_0_1)">
<rect x="12.6124" y="69.4402" width="9.2856" height="9.2856" transform="rotate(10 12.6124 69.4402)" fill="#8A2BEA"/>
</g>
<defs>
<filter id="filter0_d_0_1" x="210.303" y="0.698257" width="78.9507" height="16.7505" filterUnits="userSpaceOnUse" color-interpolation-filters="sRGB">
<feFlood flood-opacity="0" result="BackgroundImageFix"/>
<feColorMatrix in="SourceAlpha" type="matrix" values="0 0 0 0 0 0 0 0 0 0 0 0 0 0 0 0 0 0 127 0" result="hardAlpha"/>
<feOffset dy="4"/>
<feGaussianBlur stdDeviation="2"/>
<feComposite in2="hardAlpha" operator="out"/>
<feColorMatrix type="matrix" values="0 0 0 0 0 0 0 0 0 0 0 0 0 0 0 0 0 0 0.25 0"/>
<feBlend mode="normal" in2="BackgroundImageFix" result="effect1_dropShadow_0_1"/>
<feBlend mode="normal" in="SourceGraphic" in2="effect1_dropShadow_0_1" result="shape"/>
</filter>
<filter id="filter1_d_0_1" x="314.458" y="113.16" width="113.512" height="76.5796" filterUnits="userSpaceOnUse" color-interpolation-filters="sRGB">
<feFlood flood-opacity="0" result="BackgroundImageFix"/>
<feColorMatrix in="SourceAlpha" type="matrix" values="0 0 0 0 0 0 0 0 0 0 0 0 0 0 0 0 0 0 127 0" result="hardAlpha"/>
<feOffset dy="4"/>
<feGaussianBlur stdDeviation="2"/>
<feComposite in2="hardAlpha" operator="out"/>
<feColorMatrix type="matrix" values="0 0 0 0 0 0 0 0 0 0 0 0 0 0 0 0 0 0 0.25 0"/>
<feBlend mode="normal" in2="BackgroundImageFix" result="effect1_dropShadow_0_1"/>
<feBlend mode="normal" in="SourceGraphic" in2="effect1_dropShadow_0_1" result="shape"/>
</filter>
<filter id="filter2_d_0_1" x="356" y="5" width="61.6597" height="128.884" filterUnits="userSpaceOnUse" color-interpolation-filters="sRGB">
<feFlood flood-opacity="0" result="BackgroundImageFix"/>
<feColorMatrix in="SourceAlpha" type="matrix" values="0 0 0 0 0 0 0 0 0 0 0 0 0 0 0 0 0 0 127 0" result="hardAlpha"/>
<feOffset dy="4"/>
<feGaussianBlur stdDeviation="2"/>
<feComposite in2="hardAlpha" operator="out"/>
<feColorMatrix type="matrix" values="0 0 0 0 0 0 0 0 0 0 0 0 0 0 0 0 0 0 0.25 0"/>
<feBlend mode="normal" in2="BackgroundImageFix" result="effect1_dropShadow_0_1"/>
<feBlend mode="normal" in="SourceGraphic" in2="effect1_dropShadow_0_1" result="shape"/>
</filter>
<filter id="filter3_d_0_1" x="217" y="185" width="15.3488" height="15.3488" filterUnits="userSpaceOnUse" color-interpolation-filters="sRGB">
<feFlood flood-opacity="0" result="BackgroundImageFix"/>
<feColorMatrix in="SourceAlpha" type="matrix" values="0 0 0 0 0 0 0 0 0 0 0 0 0 0 0 0 0 0 127 0" result="hardAlpha"/>
<feOffset dy="4"/>
<feGaussianBlur stdDeviation="2"/>
<feComposite in2="hardAlpha" operator="out"/>
<feColorMatrix type="matrix" values="0 0 0 0 0 0 0 0 0 0 0 0 0 0 0 0 0 0 0.25 0"/>
<feBlend mode="normal" in2="BackgroundImageFix" result="effect1_dropShadow_0_1"/>
<feBlend mode="normal" in="SourceGraphic" in2="effect1_dropShadow_0_1" result="shape"/>
</filter>
<filter id="filter4_d_0_1" x="153" y="12.8932" width="12.8501" height="12.8501" filterUnits="userSpaceOnUse" color-interpolation-filters="sRGB">
<feFlood flood-opacity="0" result="BackgroundImageFix"/>
<feColorMatrix in="SourceAlpha" type="matrix" values="0 0 0 0 0 0 0 0 0 0 0 0 0 0 0 0 0 0 127 0" result="hardAlpha"/>
<feOffset dy="4"/>
<feGaussianBlur stdDeviation="2"/>
<feComposite in2="hardAlpha" operator="out"/>
<feColorMatrix type="matrix" values="0 0 0 0 0 0 0 0 0 0 0 0 0 0 0 0 0 0 0.25 0"/>
<feBlend mode="normal" in2="BackgroundImageFix" result="effect1_dropShadow_0_1"/>
<feBlend mode="normal" in="SourceGraphic" in2="effect1_dropShadow_0_1" result="shape"/>
</filter>
<filter id="filter5_d_0_1" x="169" y="173" width="15.712" height="15.712" filterUnits="userSpaceOnUse" color-interpolation-filters="sRGB">
<feFlood flood-opacity="0" result="BackgroundImageFix"/>
<feColorMatrix in="SourceAlpha" type="matrix" values="0 0 0 0 0 0 0 0 0 0 0 0 0 0 0 0 0 0 127 0" result="hardAlpha"/>
<feOffset dy="4"/>
<feGaussianBlur stdDeviation="2"/>
<feComposite in2="hardAlpha" operator="out"/>
<feColorMatrix type="matrix" values="0 0 0 0 0 0 0 0 0 0 0 0 0 0 0 0 0 0 0.25 0"/>
<feBlend mode="normal" in2="BackgroundImageFix" result="effect1_dropShadow_0_1"/>
<feBlend mode="normal" in="SourceGraphic" in2="effect1_dropShadow_0_1" result="shape"/>
</filter>
<filter id="filter6_d_0_1" x="381" y="108" width="15.232" height="15.232" filterUnits="userSpaceOnUse" color-interpolation-filters="sRGB">
<feFlood flood-opacity="0" result="BackgroundImageFix"/>
<feColorMatrix in="SourceAlpha" type="matrix" values="0 0 0 0 0 0 0 0 0 0 0 0 0 0 0 0 0 0 127 0" result="hardAlpha"/>
<feOffset dy="4"/>
<feGaussianBlur stdDeviation="2"/>
<feComposite in2="hardAlpha" operator="out"/>
<feColorMatrix type="matrix" values="0 0 0 0 0 0 0 0 0 0 0 0 0 0 0 0 0 0 0.25 0"/>
<feBlend mode="normal" in2="BackgroundImageFix" result="effect1_dropShadow_0_1"/>
<feBlend mode="normal" in="SourceGraphic" in2="effect1_dropShadow_0_1" result="shape"/>
</filter>
<filter id="filter7_d_0_1" x="164.376" y="1" width="17.1471" height="17.1471" filterUnits="userSpaceOnUse" color-interpolation-filters="sRGB">
<feFlood flood-opacity="0" result="BackgroundImageFix"/>
<feColorMatrix in="SourceAlpha" type="matrix" values="0 0 0 0 0 0 0 0 0 0 0 0 0 0 0 0 0 0 127 0" result="hardAlpha"/>
<feOffset dy="4"/>
<feGaussianBlur stdDeviation="2"/>
<feComposite in2="hardAlpha" operator="out"/>
<feColorMatrix type="matrix" values="0 0 0 0 0 0 0 0 0 0 0 0 0 0 0 0 0 0 0.25 0"/>
<feBlend mode="normal" in2="BackgroundImageFix" result="effect1_dropShadow_0_1"/>
<feBlend mode="normal" in="SourceGraphic" in2="effect1_dropShadow_0_1" result="shape"/>
</filter>
<filter id="filter8_d_0_1" x="401" y="54" width="18.2335" height="18.2335" filterUnits="userSpaceOnUse" color-interpolation-filters="sRGB">
<feFlood flood-opacity="0" result="BackgroundImageFix"/>
<feColorMatrix in="SourceAlpha" type="matrix" values="0 0 0 0 0 0 0 0 0 0 0 0 0 0 0 0 0 0 127 0" result="hardAlpha"/>
<feOffset dy="4"/>
<feGaussianBlur stdDeviation="2"/>
<feComposite in2="hardAlpha" operator="out"/>
<feColorMatrix type="matrix" values="0 0 0 0 0 0 0 0 0 0 0 0 0 0 0 0 0 0 0.25 0"/>
<feBlend mode="normal" in2="BackgroundImageFix" result="effect1_dropShadow_0_1"/>
<feBlend mode="normal" in="SourceGraphic" in2="effect1_dropShadow_0_1" result="shape"/>
</filter>
<filter id="filter9_d_0_1" x="372" y="166" width="21.0052" height="21.0052" filterUnits="userSpaceOnUse" color-interpolation-filters="sRGB">
<feFlood flood-opacity="0" result="BackgroundImageFix"/>
<feColorMatrix in="SourceAlpha" type="matrix" values="0 0 0 0 0 0 0 0 0 0 0 0 0 0 0 0 0 0 127 0" result="hardAlpha"/>
<feOffset dy="4"/>
<feGaussianBlur stdDeviation="2"/>
<feComposite in2="hardAlpha" operator="out"/>
<feColorMatrix type="matrix" values="0 0 0 0 0 0 0 0 0 0 0 0 0 0 0 0 0 0 0.25 0"/>
<feBlend mode="normal" in2="BackgroundImageFix" result="effect1_dropShadow_0_1"/>
<feBlend mode="normal" in="SourceGraphic" in2="effect1_dropShadow_0_1" result="shape"/>
</filter>
<filter id="filter10_d_0_1" x="0" y="91" width="43.0394" height="83.9076" filterUnits="userSpaceOnUse" color-interpolation-filters="sRGB">
<feFlood flood-opacity="0" result="BackgroundImageFix"/>
<feColorMatrix in="SourceAlpha" type="matrix" values="0 0 0 0 0 0 0 0 0 0 0 0 0 0 0 0 0 0 127 0" result="hardAlpha"/>
<feOffset dy="4"/>
<feGaussianBlur stdDeviation="2"/>
<feComposite in2="hardAlpha" operator="out"/>
<feColorMatrix type="matrix" values="0 0 0 0 0 0 0 0 0 0 0 0 0 0 0 0 0 0 0.25 0"/>
<feBlend mode="normal" in2="BackgroundImageFix" result="effect1_dropShadow_0_1"/>
<feBlend mode="normal" in="SourceGraphic" in2="effect1_dropShadow_0_1" result="shape"/>
</filter>
<filter id="filter11_d_0_1" x="55" y="33.8603" width="27.0885" height="136.379" filterUnits="userSpaceOnUse" color-interpolation-filters="sRGB">
<feFlood flood-opacity="0" result="BackgroundImageFix"/>
<feColorMatrix in="SourceAlpha" type="matrix" values="0 0 0 0 0 0 0 0 0 0 0 0 0 0 0 0 0 0 127 0" result="hardAlpha"/>
<feOffset dy="4"/>
<feGaussianBlur stdDeviation="2"/>
<feComposite in2="hardAlpha" operator="out"/>
<feColorMatrix type="matrix" values="0 0 0 0 0 0 0 0 0 0 0 0 0 0 0 0 0 0 0.25 0"/>
<feBlend mode="normal" in2="BackgroundImageFix" result="effect1_dropShadow_0_1"/>
<feBlend mode="normal" in="SourceGraphic" in2="effect1_dropShadow_0_1" result="shape"/>
</filter>
<filter id="filter12_d_0_1" x="21.4786" y="41" width="15.5611" height="15.5611" filterUnits="userSpaceOnUse" color-interpolation-filters="sRGB">
<feFlood flood-opacity="0" result="BackgroundImageFix"/>
<feColorMatrix in="SourceAlpha" type="matrix" values="0 0 0 0 0 0 0 0 0 0 0 0 0 0 0 0 0 0 127 0" result="hardAlpha"/>
<feOffset dy="4"/>
<feGaussianBlur stdDeviation="2"/>
<feComposite in2="hardAlpha" operator="out"/>
<feColorMatrix type="matrix" values="0 0 0 0 0 0 0 0 0 0 0 0 0 0 0 0 0 0 0.25 0"/>
<feBlend mode="normal" in2="BackgroundImageFix" result="effect1_dropShadow_0_1"/>
<feBlend mode="normal" in="SourceGraphic" in2="effect1_dropShadow_0_1" result="shape"/>
</filter>
<filter id="filter13_d_0_1" x="38" y="127" width="24.7878" height="24.7878" filterUnits="userSpaceOnUse" color-interpolation-filters="sRGB">
<feFlood flood-opacity="0" result="BackgroundImageFix"/>
<feColorMatrix in="SourceAlpha" type="matrix" values="0 0 0 0 0 0 0 0 0 0 0 0 0 0 0 0 0 0 127 0" result="hardAlpha"/>
<feOffset dy="4"/>
<feGaussianBlur stdDeviation="2"/>
<feComposite in2="hardAlpha" operator="out"/>
<feColorMatrix type="matrix" values="0 0 0 0 0 0 0 0 0 0 0 0 0 0 0 0 0 0 0.25 0"/>
<feBlend mode="normal" in2="BackgroundImageFix" result="effect1_dropShadow_0_1"/>
<feBlend mode="normal" in="SourceGraphic" in2="effect1_dropShadow_0_1" result="shape"/>
</filter>
<filter id="filter14_d_0_1" x="7" y="69.4402" width="18.757" height="18.757" filterUnits="userSpaceOnUse" color-interpolation-filters="sRGB">
<feFlood flood-opacity="0" result="BackgroundImageFix"/>
<feColorMatrix in="SourceAlpha" type="matrix" values="0 0 0 0 0 0 0 0 0 0 0 0 0 0 0 0 0 0 127 0" result="hardAlpha"/>
<feOffset dy="4"/>
<feGaussianBlur stdDeviation="2"/>
<feComposite in2="hardAlpha" operator="out"/>
<feColorMatrix type="matrix" values="0 0 0 0 0 0 0 0 0 0 0 0 0 0 0 0 0 0 0.25 0"/>
<feBlend mode="normal" in2="BackgroundImageFix" result="effect1_dropShadow_0_1"/>
<feBlend mode="normal" in="SourceGraphic" in2="effect1_dropShadow_0_1" result="shape"/>
</filter>
</defs>
</svg>
