<svg width="137" height="137" viewBox="0 0 137 137" fill="none" xmlns="http://www.w3.org/2000/svg">
<path d="M119.875 119.875V38.5312L81.3438 0H34.25C29.7082 0 25.3524 1.80424 22.1408 5.0158C18.9292 8.22736 17.125 12.5832 17.125 17.125V119.875C17.125 124.417 18.9292 128.773 22.1408 131.984C25.3524 135.196 29.7082 137 34.25 137H102.75C107.292 137 111.648 135.196 114.859 131.984C118.071 128.773 119.875 124.417 119.875 119.875ZM81.3438 25.6875C81.3438 29.0939 82.6969 32.3607 85.1056 34.7694C87.5143 37.1781 90.7811 38.5312 94.1875 38.5312H111.312V119.875C111.312 122.146 110.41 124.324 108.805 125.93C107.199 127.535 105.021 128.438 102.75 128.438H34.25C31.9791 128.438 29.8012 127.535 28.1954 125.93C26.5896 124.324 25.6875 122.146 25.6875 119.875V17.125C25.6875 14.8541 26.5896 12.6762 28.1954 11.0704C29.8012 9.46462 31.9791 8.5625 34.25 8.5625H81.3438V25.6875Z" fill="black"/>
<path d="M39.4132 120.62C37.7443 119.952 36.3997 118.663 35.6628 117.024C33.9931 113.701 34.5497 110.379 36.3478 107.588C38.0432 104.959 40.8517 102.724 44.0284 100.849C48.0522 98.567 52.3056 96.7158 56.718 95.3263C60.1446 89.1664 63.1817 82.7976 65.8114 76.2576C64.2391 72.6851 63.0064 68.9726 62.1295 65.1692C61.3931 61.7442 61.1106 58.3534 61.7356 55.4422C62.3778 52.4111 64.0818 49.6882 67.3013 48.3953C68.9453 47.7359 70.7263 47.3678 72.4559 47.7359C73.3259 47.9212 74.1438 48.2977 74.8503 48.8383C75.5567 49.3788 76.134 50.0699 76.5402 50.8613C77.2937 52.2655 77.5677 53.9095 77.6276 55.4679C77.6876 57.0776 77.5249 58.8586 77.2252 60.7253C76.5059 65.0921 74.9133 70.4351 72.7727 76.0864C75.135 81.1384 77.9432 85.9697 81.1639 90.5227C84.9751 90.2217 88.8084 90.3654 92.5863 90.9509C95.7031 91.516 98.8712 92.6206 100.806 94.9324C101.834 96.1654 102.459 97.6724 102.519 99.3678C102.579 101.012 102.116 102.639 101.337 104.189C100.662 105.625 99.6158 106.854 98.3061 107.75C97.0115 108.595 95.483 109.009 93.9392 108.932C91.105 108.812 88.3393 107.254 85.9504 105.362C83.0455 102.96 80.428 100.23 78.1499 97.2272C72.3596 97.8843 66.6379 99.0476 61.0506 100.704C58.492 105.241 55.5712 109.565 52.3169 113.633C49.8166 116.63 47.1023 119.25 44.3794 120.372C42.815 121.079 41.0405 121.168 39.4132 120.62ZM51.2209 104.343C49.7995 104.993 48.4809 105.678 47.2907 106.38C44.4822 108.042 42.6584 109.66 41.7508 111.064C40.9459 112.306 40.9288 113.205 41.4083 114.155C41.4939 114.344 41.5795 114.464 41.6309 114.532C41.733 114.505 41.8332 114.47 41.9306 114.429C43.1036 113.95 44.9703 112.417 47.3678 109.532C48.7313 107.862 50.017 106.131 51.2209 104.343ZM65.2634 92.9545C68.1226 92.2872 71.0077 91.7359 73.9115 91.3019C72.3524 88.9161 70.8955 86.465 69.5446 83.9553C68.2016 86.9915 66.774 89.9895 65.2634 92.9459V92.9545ZM86.2073 96.8076C87.4916 98.2033 88.7418 99.3764 89.9319 100.318C91.9869 101.945 93.4169 102.485 94.1961 102.51C94.4047 102.538 94.6163 102.492 94.7954 102.382C95.1516 102.101 95.4289 101.732 95.6003 101.311C95.9047 100.79 96.0781 100.202 96.1055 99.599C96.1006 99.3978 96.0213 99.2057 95.8829 99.0596C95.4376 98.5287 94.1704 97.7581 91.4475 97.27C89.7155 96.9803 87.9633 96.8286 86.2073 96.8162V96.8076ZM69.1679 66.7875C69.8885 64.463 70.4605 62.0949 70.8804 59.6978C71.1458 58.088 71.2486 56.7608 71.2058 55.7162C71.2081 55.1399 71.1156 54.5671 70.9318 54.0208C70.5034 54.0738 70.0851 54.1892 69.6902 54.3633C68.9453 54.663 68.3373 55.2709 68.0119 56.7865C67.6694 58.4305 67.7551 60.8023 68.4058 63.8249C68.6113 64.7753 68.8682 65.7686 69.1764 66.7875H69.1679Z" fill="black"/>
</svg>
